<svg id="Group_462" data-name="Group 462" xmlns="http://www.w3.org/2000/svg" xmlns:xlink="http://www.w3.org/1999/xlink" width="24.844" height="18.082" viewBox="0 0 24.844 18.082">
  <defs>
    <clipPath id="clip-path">
      <rect id="Rectangle_66" data-name="Rectangle 66" width="24.844" height="18.082" fill="none"/>
    </clipPath>
  </defs>
  <g id="Group_453" data-name="Group 453" clip-path="url(#clip-path)">
    <path id="Path_198" data-name="Path 198" d="M21.717.025a.272.272,0,0,1,.266.266l.1,1.176a4.025,4.025,0,0,1,.644-.073,1.134,1.134,0,0,1,1.18,1.047l.933,11.093a1.112,1.112,0,0,1-.343.913,1.187,1.187,0,0,1-.932.3A16.238,16.238,0,0,0,15.4,16.065a1.873,1.873,0,0,1-.1.209,3.144,3.144,0,0,1-2.776,1.806h-.1A3.211,3.211,0,0,1,9.54,16.294a1.88,1.88,0,0,1-.1-.209,16.24,16.24,0,0,0-8.163-1.313,1.187,1.187,0,0,1-.932-.3,1.09,1.09,0,0,1-.343-.913L.939,2.461a1.148,1.148,0,0,1,1.18-1.047,4.1,4.1,0,0,1,.642.069l.1-1.192A.323.323,0,0,1,3.127.025c5.843-.307,8.551,2.3,9.3,3.2.748-.892,3.467-3.5,9.294-3.2Zm1.027,1.941a3.3,3.3,0,0,0-.615.066l.9,10.7a.286.286,0,0,1-.076.209.305.305,0,0,1-.209.1c-6.812-.057-10.1,2.74-10.123,2.778a.241.241,0,0,1-.107.066l.012-.009a.107.107,0,0,1-.073.019h-.023a.241.241,0,0,1-.114-.019.254.254,0,0,1-.1-.072c-.288-.225-3.524-2.763-9.893-2.763H2.1a.305.305,0,0,1-.209-.1.286.286,0,0,1-.076-.209l.9-10.693a4.56,4.56,0,0,0-.633-.076.565.565,0,0,0-.59.514L.558,13.573a.575.575,0,0,0,.171.457.562.562,0,0,0,.457.152A16.809,16.809,0,0,1,9.748,15.59a.373.373,0,0,1,.171.171s.038.1.114.267a2.591,2.591,0,0,0,2.286,1.464l.093,0a2.63,2.63,0,0,0,2.379-1.465,2.294,2.294,0,0,0,.114-.267.225.225,0,0,1,.171-.171,17.028,17.028,0,0,1,8.563-1.408.562.562,0,0,0,.457-.152.575.575,0,0,0,.171-.457L23.334,2.48a.553.553,0,0,0-.59-.514ZM14.7,2.1a7.078,7.078,0,0,0-1.979,1.675V15.057c1.142-.78,4.3-2.55,9.723-2.55l-.9-10.6a.256.256,0,0,1-.008-.1l-.1-1.2A12.056,12.056,0,0,0,14.7,2.1ZM3.431.577,2.422,12.488c5.423.019,8.6,1.789,9.723,2.55V3.754C11.784,3.279,9.292.348,3.431.577Z" transform="translate(0 0)"/>
  </g>
</svg>
