<svg id="Group_448" data-name="Group 448" xmlns="http://www.w3.org/2000/svg" xmlns:xlink="http://www.w3.org/1999/xlink" width="25.236" height="18.633" viewBox="0 0 25.236 18.633">
  <defs>
    <clipPath id="clip-path">
      <rect id="Rectangle_63" data-name="Rectangle 63" width="25.236" height="18.633" fill="none"/>
    </clipPath>
  </defs>
  <g id="Group_447" data-name="Group 447" clip-path="url(#clip-path)">
    <path id="Path_182" data-name="Path 182" d="M176.4,148.09,174.431,150v-8.566a.61.61,0,0,0-1.219,0V150l-1.971-1.911a.624.624,0,0,0-.863,0,.579.579,0,0,0,0,.836l3.441,3.334,3.441-3.336a.579.579,0,0,0,0-.836.624.624,0,0,0-.863,0Z" transform="translate(-161.207 -133.632)"/>
    <path id="Path_183" data-name="Path 183" d="M21.151,3.821a6.426,6.426,0,0,0-2.415-2.775A6.723,6.723,0,0,0,15.15,0a6.6,6.6,0,0,0-4.859,2.1,4.739,4.739,0,0,0-2.755.094,4.593,4.593,0,0,0-2.2,1.6,5.043,5.043,0,0,0-.553-.031A4.808,4.808,0,0,0,.64,6.083a4.512,4.512,0,0,0,0,4.633,4.809,4.809,0,0,0,4.139,2.316H7.042a.591.591,0,1,0,0-1.182H4.779A3.581,3.581,0,0,1,1.7,10.125a3.36,3.36,0,0,1,0-3.451A3.581,3.581,0,0,1,4.779,4.949,3.832,3.832,0,0,1,5.5,5.02l.423.086.222-.361A3.432,3.432,0,0,1,8.768,3.136a3.468,3.468,0,0,1,1.5.2l.417.152.275-.339h0a5.355,5.355,0,0,1,3.148-1.857,5.472,5.472,0,0,1,3.638.569A5.21,5.21,0,0,1,20.13,4.584l.136.361.4.026h0A3.566,3.566,0,0,1,23.68,6.791a3.354,3.354,0,0,1-.117,3.442,3.584,3.584,0,0,1-3.134,1.623H18.121a.591.591,0,1,0,0,1.182h2.326a4.816,4.816,0,0,0,4.024-2.117A4.509,4.509,0,0,0,24.809,6.5a4.761,4.761,0,0,0-3.658-2.669Z" transform="translate(0 0)"/>
  </g>
</svg>
