<svg xmlns="http://www.w3.org/2000/svg" xmlns:xlink="http://www.w3.org/1999/xlink" width="22.996" height="23" viewBox="0 0 22.996 23">
  <defs>
    <clipPath id="clip-path">
      <rect id="Rectangle_68" data-name="Rectangle 68" width="22.996" height="23" fill="none"/>
    </clipPath>
  </defs>
  <g id="Group_468" data-name="Group 468" clip-path="url(#clip-path)">
    <path id="Path_199" data-name="Path 199" d="M1.278,10.224h.767V21.211A1.791,1.791,0,0,0,3.833,23h15.33a1.791,1.791,0,0,0,1.789-1.789V10.224h.767A1.279,1.279,0,0,0,23,8.947V6.392a1.279,1.279,0,0,0-1.278-1.278H18.507a3.094,3.094,0,0,0,1.423-2.3A2.661,2.661,0,0,0,17.119,0C14.825,0,12.256,3.712,11.5,4.889,10.74,3.712,8.171,0,5.877,0A2.661,2.661,0,0,0,3.066,2.815a3.093,3.093,0,0,0,1.423,2.3H1.278A1.279,1.279,0,0,0,0,6.392V8.947a1.279,1.279,0,0,0,1.278,1.278ZM2.555,21.211V10.224H9.2V22.489H3.833a1.279,1.279,0,0,1-1.278-1.278ZM8.176,5.625h6.643V9.714H8.176Zm1.533,4.6h3.577V22.489H9.709ZM20.441,21.211a1.279,1.279,0,0,1-1.278,1.278H13.8V10.224h6.643ZM22.485,6.392V8.947a.767.767,0,0,1-.767.767H15.331V5.625h6.388a.767.767,0,0,1,.767.767ZM17.119.515a2.155,2.155,0,0,1,2.3,2.3c0,1.229-1.549,2.134-1.852,2.3h-5.6c.765-1.172,3.172-4.6,5.157-4.6ZM3.577,2.815a2.155,2.155,0,0,1,2.3-2.3c1.984,0,4.392,3.427,5.157,4.6h-5.6c-.3-.165-1.852-1.067-1.852-2.3ZM.511,6.392a.767.767,0,0,1,.767-.767H7.665V9.714H1.278a.767.767,0,0,1-.767-.767Z" transform="translate(0 0)"/>
  </g>
</svg>
