<svg xmlns="http://www.w3.org/2000/svg" xmlns:xlink="http://www.w3.org/1999/xlink" width="23.472" height="23.703" viewBox="0 0 23.472 23.703">
  <defs>
    <clipPath id="clip-path">
      <rect id="Rectangle_4" data-name="Rectangle 4" width="23.472" height="23.703" fill="#fff"/>
    </clipPath>
  </defs>
  <g id="Icono_Mundo" data-name="Icono Mundo" transform="translate(0 1.148)">
    <g id="Group_248" data-name="Group 248" transform="translate(0 -1.148)" clip-path="url(#clip-path)">
      <path id="Path_22" data-name="Path 22" d="M11.736,0A11.736,11.736,0,0,0,0,11.736v.231a11.736,11.736,0,1,0,23.472,0v-.231A11.736,11.736,0,0,0,11.933,0l-.082,0h-.115ZM9.243,2.048a10.024,10.024,0,0,0-6.284,4.89h3.8a15.871,15.871,0,0,1,2.487-4.89ZM1.735,11.736a10,10,0,0,1,.478-3.064H6.331a15.963,15.963,0,0,0,.1,6.36H2.213a10,10,0,0,1-.478-3.064Zm1.224,5.03a10.015,10.015,0,0,0,6.778,5,15.883,15.883,0,0,1-2.815-5Zm5.811,0a14.161,14.161,0,0,0,2.312,3.907l.488.586a.367.367,0,0,0,.564,0l.488-.586a14.158,14.158,0,0,0,2.312-3.907Zm8.012,0a15.885,15.885,0,0,1-2.765,4.942,10.02,10.02,0,0,0,6.5-4.942Zm4.479-1.734H17.268a15.959,15.959,0,0,0,.1-6.36H21.26a9.989,9.989,0,0,1,.478,3.064v.231a9.989,9.989,0,0,1-.478,3.064Zm-5.773,0H8.216A14.219,14.219,0,0,1,8.1,8.672H15.6a14.219,14.219,0,0,1-.118,6.36Zm1.461-8.094h3.566a10.027,10.027,0,0,0-5.994-4.811,15.87,15.87,0,0,1,2.428,4.811Zm-6.1-4.128A14.154,14.154,0,0,0,8.58,6.938h6.543A14.155,14.155,0,0,0,12.858,2.81l-.751-.951a.326.326,0,0,0-.231-.123h-.043a.326.326,0,0,0-.238.123Z" fill="#fff" fill-rule="evenodd"/>
    </g>
  </g>
</svg>
