<svg id="Group_461" data-name="Group 461" xmlns="http://www.w3.org/2000/svg" xmlns:xlink="http://www.w3.org/1999/xlink" width="18.174" height="23.291" viewBox="0 0 18.174 23.291">
  <defs>
    <clipPath id="clip-path">
      <rect id="Rectangle_65" data-name="Rectangle 65" width="18.174" height="23.291" fill="none"/>
    </clipPath>
  </defs>
  <g id="Group_451" data-name="Group 451" clip-path="url(#clip-path)">
    <path id="Path_191" data-name="Path 191" d="M47.111,38.917v4.108a.3.3,0,0,0,.512.221l1.583-1.458,1.58,1.458a.3.3,0,0,0,.512-.221V38.941h1.5V56.182H39.5V38.94Zm.3-.613a.222.222,0,0,0-.046,0l-8.169.025a.3.3,0,0,0-.3.3v17.85a.306.306,0,0,0,.3.3H53.1a.306.306,0,0,0,.3-.3V38.637a.3.3,0,0,0-.3-.3H48.855a.3.3,0,1,0,0,.608h1.833v3.387l-1.278-1.177a.3.3,0,0,0-.413,0l-1.276,1.177v-3.6a.3.3,0,0,0-.247-.418h0a.292.292,0,0,0-.061-.006Z" transform="translate(-37.062 -36.502)"/>
    <path id="Path_192" data-name="Path 192" d="M16.224,22.683H1.949a1.332,1.332,0,0,1-1.34-1.342V1.952A1.331,1.331,0,0,1,1.948.61H16.224a1.333,1.333,0,0,1,1.342,1.342V21.341a1.334,1.334,0,0,1-1.342,1.341Zm0,.608a1.952,1.952,0,0,0,1.95-1.95V1.952A1.954,1.954,0,0,0,16.224,0H1.949A1.953,1.953,0,0,0,0,1.952V21.341a1.951,1.951,0,0,0,1.949,1.95Z"/>
    <path id="Path_193" data-name="Path 193" d="M69.455,224.96a.3.3,0,0,0,.029.607H80.538a.3.3,0,1,0,0-.607H69.455Z" transform="translate(-65.923 -214.374)"/>
    <path id="Path_194" data-name="Path 194" d="M69.189,264.735a.305.305,0,0,0,.029.61H80.272a.305.305,0,1,0,0-.61H69.189Z" transform="translate(-65.658 -252.278)"/>
    <path id="Path_195" data-name="Path 195" d="M69.455,344.347a.3.3,0,0,0,.029.607H76.4a.3.3,0,1,0,0-.607H69.484A.076.076,0,0,0,69.455,344.347Z" transform="translate(-65.923 -328.143)"/>
    <path id="Path_196" data-name="Path 196" d="M69.485,304.535a.305.305,0,1,0,0,.61H80.537a.305.305,0,1,0,0-.61Z" transform="translate(-65.923 -290.206)"/>
    <path id="Path_197" data-name="Path 197" d="M157.405,185.155a.3.3,0,1,0,0,.61h6.917a.3.3,0,1,0,0-.61Z" transform="translate(-149.708 -176.443)"/>
  </g>
</svg>
