<svg id="Group_340" data-name="Group 340" xmlns="http://www.w3.org/2000/svg" xmlns:xlink="http://www.w3.org/1999/xlink" width="30" height="30" viewBox="0 0 30 30">
  <defs>
    <clipPath id="clip-path">
      <rect id="Rectangle_8" data-name="Rectangle 8" width="30" height="30" fill="none"/>
    </clipPath>
  </defs>
  <g id="Group_339" data-name="Group 339" clip-path="url(#clip-path)">
    <path id="Path_28" data-name="Path 28" d="M15,0A15,15,0,1,0,30,15,15.044,15.044,0,0,0,15,0m0,27A12,12,0,1,1,27,15,12.035,12.035,0,0,1,15,27" fill="#2c2c2c"/>
    <path id="Path_29" data-name="Path 29" d="M58.776,49.833H45.456a1.275,1.275,0,1,1,0-2.551H58.776a1.275,1.275,0,0,1,0,2.551" transform="translate(-37.116 -39.721)" fill="#2c2c2c"/>
    <path id="Path_30" data-name="Path 30" d="M58.776,72.979H45.456a1.275,1.275,0,0,0,0,2.551H58.776a1.275,1.275,0,0,0,0-2.551" transform="translate(-37.116 -61.309)" fill="#2c2c2c"/>
    <path id="Path_31" data-name="Path 31" d="M58.776,98.676H45.456a1.275,1.275,0,1,0,0,2.551H58.776a1.275,1.275,0,0,0,0-2.551" transform="translate(-37.116 -82.897)" fill="#2c2c2c"/>
    <path id="Path_32" data-name="Path 32" d="M52.191,124.372H45.457a1.275,1.275,0,0,0,0,2.551h6.734a1.275,1.275,0,0,0,0-2.551" transform="translate(-37.117 -104.484)" fill="#2c2c2c"/>
  </g>
</svg>
