<svg id="Group_460" data-name="Group 460" xmlns="http://www.w3.org/2000/svg" xmlns:xlink="http://www.w3.org/1999/xlink" width="22.126" height="23.291" viewBox="0 0 22.126 23.291">
  <defs>
    <clipPath id="clip-path">
      <rect id="Rectangle_64" data-name="Rectangle 64" width="22.126" height="23.291" fill="none"/>
    </clipPath>
  </defs>
  <g id="Group_449" data-name="Group 449" clip-path="url(#clip-path)">
    <path id="Path_184" data-name="Path 184" d="M103.489,284.4a1.694,1.694,0,0,1-.534,1.363,2.13,2.13,0,0,1-1.45.481h-.687v1.845H99.75v-5.614H101.5a2,2,0,0,1,1.45.481,2.044,2.044,0,0,1,.534,1.444m-1.068,0a.938.938,0,0,0-.229-.642.905.905,0,0,0-.687-.241h-.687v1.845h.687a.905.905,0,0,0,.687-.241,1.338,1.338,0,0,0,.229-.722" transform="translate(-95.401 -269.53)"/>
    <path id="Path_185" data-name="Path 185" d="M209.328,285.282a2.825,2.825,0,0,1-.687,2.085,2.716,2.716,0,0,1-2.06.722H204.75v-5.614h1.831a2.769,2.769,0,0,1,1.984.722,2.8,2.8,0,0,1,.763,2.085m-1.068,0A1.742,1.742,0,0,0,207.8,284a1.569,1.569,0,0,0-1.221-.481h-.916v3.689h.763c1.3-.08,1.831-.642,1.831-1.925" transform="translate(-195.823 -269.53)"/>
    <path id="Path_186" data-name="Path 186" d="M335.781,282.475v.962h-2.289v1.283H335.7v.962h-2.213v2.406H332.5v-5.614Z" transform="translate(-318.003 -269.53)"/>
    <path id="Path_187" data-name="Path 187" d="M85.641,13H70.381a.37.37,0,0,1-.381-.4V1.126a.37.37,0,0,1,.381-.4h9.156c.076,0,.229.08.305.08l6.1,6.5c.076.08.076.16.076.321v4.972a.42.42,0,0,1-.381.4m-14.878-.8h14.5V7.783L79.385,1.527H70.763Z" transform="translate(-66.948 -0.692)"/>
    <path id="Path_188" data-name="Path 188" d="M85.641,424.735H70.381a.37.37,0,0,1-.381-.4v-3.208a.37.37,0,0,1,.381-.4h15.26a.37.37,0,0,1,.381.4v3.208a.37.37,0,0,1-.381.4m-14.878-.8h14.5v-2.406h-14.5Z" transform="translate(-66.948 -401.444)"/>
    <path id="Path_189" data-name="Path 189" d="M286.485,7.331h-6.1a.37.37,0,0,1-.381-.4V.434a.445.445,0,0,1,.229-.4.324.324,0,0,1,.382.08l6.028,6.416a.424.424,0,0,1,.153.321c.076.321-.076.481-.305.481m-5.722-.8h4.807L280.763,1.4Z" transform="translate(-267.792 0)"/>
    <path id="Path_190" data-name="Path 190" d="M21.745,257.887H.381a.37.37,0,0,1-.381-.4v-7.859a.37.37,0,0,1,.381-.4H21.745a.37.37,0,0,1,.381.4v7.859a.37.37,0,0,1-.381.4m-20.982-.8h20.6v-7.058H.763Z" transform="translate(0 -237.803)"/>
  </g>
</svg>
