<svg id="Group_338" data-name="Group 338" xmlns="http://www.w3.org/2000/svg" xmlns:xlink="http://www.w3.org/1999/xlink" width="30" height="30" viewBox="0 0 30 30">
  <defs>
    <clipPath id="clip-path">
      <rect id="Rectangle_7" data-name="Rectangle 7" width="30" height="30" fill="none"/>
    </clipPath>
  </defs>
  <g id="Group_337" data-name="Group 337" clip-path="url(#clip-path)">
    <path id="Path_26" data-name="Path 26" d="M15,0A15,15,0,1,0,30,15,15.044,15.044,0,0,0,15,0m0,27A12,12,0,1,1,27,15,12.035,12.035,0,0,1,15,27" fill="#2c2c2c"/>
    <path id="Path_27" data-name="Path 27" d="M48.5,45.17a3.219,3.219,0,1,0-3.16-2.565L41.2,45.2a3.219,3.219,0,1,0,0,4.62l4.142,2.6a3.24,3.24,0,1,0,.4-1.011l-3.911-2.452a3.183,3.183,0,0,0,0-2.887l3.917-2.455A3.219,3.219,0,0,0,48.5,45.17Z" transform="translate(-30.021 -32.538)" fill="#2c2c2c"/>
  </g>
</svg>
