<svg width="28" height="28" viewBox="0 0 28 28" fill="none" xmlns="http://www.w3.org/2000/svg">
<path fill-rule="evenodd" clip-rule="evenodd" d="M8.55984 0.666687H19.4532C24.1598 0.666687 27.3332 3.69469 27.3332 8.21335V19.7734C27.3332 24.2934 24.1598 27.3334 19.4532 27.3334H8.55984C3.83984 27.3334 0.666504 24.2934 0.666504 19.7734V8.21335C0.666504 3.69469 3.83984 0.666687 8.55984 0.666687ZM10.9731 15H19.4398C19.9998 15 20.4398 14.5467 20.4398 14C20.4398 13.44 19.9998 13 19.4398 13H10.9731L14.2798 9.70668C14.4664 9.52001 14.5731 9.25334 14.5731 9.00001C14.5731 8.74801 14.4664 8.49334 14.2798 8.29334C13.8931 7.90668 13.2531 7.90668 12.8664 8.29334L7.83977 13.2933C7.46643 13.6667 7.46643 14.3333 7.83977 14.7067L12.8664 19.7067C13.2531 20.0933 13.8931 20.0933 14.2798 19.7067C14.6664 19.3067 14.6664 18.68 14.2798 18.28L10.9731 15Z" fill="#01161E"/>
</svg>
