<svg width="329" height="27" viewBox="0 0 329 27" fill="none" xmlns="http://www.w3.org/2000/svg">
<path d="M164.501 10.3726C165.659 12.5473 165.639 15.0987 164.501 17.3939C163.361 15.0987 163.344 12.5473 164.501 10.3726ZM79.9591 19.8448C95.4734 19.7896 123.239 19.1618 123.394 19.2773C135.45 28.0965 151.165 27.7474 156.92 26.0197C160.676 24.8897 163.049 23.1922 164.501 21.7457C165.954 23.1922 168.324 24.8897 172.082 26.0197C177.835 27.7474 193.55 28.0965 205.606 19.2773C205.763 19.1618 233.529 19.7896 249.041 19.8448C285.815 19.9754 329 18.7499 329 18.4536C329 18.1598 286.215 17.1126 249.453 17.2482C232.559 17.3085 205.523 16.9871 204.786 18.3657C204.778 18.3682 204.771 18.3632 204.766 18.3682C200.983 20.686 195.485 23.6166 192.364 24.2971C174.68 28.1568 168.457 22.4112 166.056 19.669C168.692 15.2016 167.704 10.5183 166.394 8.46418C166.346 8.39135 166.276 8.33861 166.229 8.26579C168.599 6.25183 173.035 4.48397 177.568 8.96641C180.593 14.1269 176.933 18.21 174.26 18.0669C170.489 17.866 170.834 15.3146 170.907 14.4734C170.974 13.6799 171.455 13.0395 172.297 12.6202C172.932 12.3063 173.792 11.357 173.48 10.7167C172.765 9.24766 171.092 9.68709 170.457 10.001C168.814 10.8171 168.164 12.5649 168.347 14.2524C168.549 16.1484 169.309 20.8995 175.3 19.6565C176.978 19.3074 181.751 16.8188 179.62 9.65698C180.708 10.2622 184.371 12.4142 185.099 12.8311C187.166 14.162 187.814 15.3347 188.434 16.8389C188.892 17.9513 188.386 19.6062 187.466 20.0005C186.894 20.2466 186.019 20.0683 185.664 19.6339C185.286 19.1718 185.644 18.4536 185.991 17.9237C186.819 16.6606 184.836 15.0334 183.363 16.4848C181.493 18.3331 182.603 20.7111 183.543 21.4896C184.641 22.4011 187.074 22.9862 188.797 21.5448C189.807 20.7011 191.617 17.753 187.869 13.8682C190.154 15.5306 194.155 16.2689 196.662 15.6336C200.15 14.7547 202.618 12.2384 202.796 8.63241C203.003 4.44126 199.99 1.72919 198.49 0.8327C196.48 -0.365128 193.102 -0.216932 191.557 0.933183C188.284 3.364 188.309 9.97339 193.365 10.1617C194.977 10.222 196.802 9.11457 197.295 7.83136C198.113 5.7044 196.672 5.06154 196.062 4.94351C193.7 4.49401 193.912 7.78613 192.122 6.23171C191.209 5.4407 191.867 3.55731 192.944 2.71105C194.005 1.87483 195.67 1.68399 197.19 2.22138C199.628 3.08523 201.378 5.69185 201.26 8.28338C201.143 10.8774 199.165 13.3132 196.66 13.9485C195.132 14.3378 192.567 14.5136 190.594 13.7477C186.029 11.9698 178.408 6.28947 175.648 5.22976C174.997 4.86564 174.355 4.60451 173.782 4.44128C172.727 4.14496 171.677 4.00938 170.654 4.02193C168.342 4.05207 166.204 4.88829 164.501 6.34477C162.796 4.88829 160.658 4.05207 158.346 4.02193C157.323 4.00938 156.273 4.14496 155.218 4.44128C154.645 4.60451 154.005 4.86564 153.352 5.22976C150.595 6.28947 142.974 11.9698 138.406 13.7477C136.433 14.5136 133.868 14.3378 132.343 13.9485C129.837 13.3132 127.857 10.8774 127.74 8.28338C127.622 5.69185 129.372 3.08523 131.81 2.22138C133.33 1.68399 134.998 1.87483 136.058 2.71105C137.133 3.55731 137.793 5.4407 136.881 6.23171C135.09 7.78613 135.3 4.49401 132.938 4.94351C132.328 5.06154 130.887 5.7044 131.705 7.83136C132.198 9.11457 134.025 10.222 135.635 10.1617C140.691 9.97339 140.716 3.364 137.446 0.933183C135.898 -0.216932 132.52 -0.365128 130.512 0.8327C129.01 1.72919 125.999 4.44126 126.204 8.63241C126.382 12.2384 128.85 14.7547 132.338 15.6336C134.845 16.2689 138.848 15.5306 141.134 13.8682C137.383 17.753 139.193 20.7011 140.203 21.5448C141.926 22.9862 144.359 22.4011 145.457 21.4896C146.397 20.7111 147.507 18.3331 145.637 16.4848C144.164 15.0334 142.181 16.6606 143.009 17.9237C143.359 18.4536 143.714 19.1718 143.336 19.6339C142.981 20.0683 142.106 20.2466 141.536 20.0005C140.616 19.6062 140.108 17.9513 140.569 16.8389C141.186 15.3347 141.836 14.162 143.901 12.8311C144.629 12.4142 148.292 10.2622 149.38 9.65698C147.249 16.8188 152.022 19.3074 153.7 19.6565C159.691 20.8995 160.451 16.1484 160.656 14.2524C160.836 12.5649 160.186 10.8171 158.543 10.001C157.908 9.68709 156.235 9.24766 155.52 10.7167C155.208 11.357 156.068 12.3063 156.703 12.6202C157.545 13.0395 158.025 13.6799 158.093 14.4734C158.166 15.3146 158.511 17.866 154.74 18.0669C152.067 18.21 148.409 14.1269 151.432 8.96641C155.965 4.48397 160.401 6.25183 162.774 8.26579C162.724 8.33861 162.656 8.39135 162.606 8.46418C161.296 10.5183 160.308 15.2016 162.944 19.669C160.543 22.4112 154.32 28.1568 136.636 24.2971C133.515 23.6166 128.017 20.686 124.237 18.3682C124.229 18.3632 124.222 18.3682 124.214 18.3657C123.477 16.9871 96.4435 17.3085 79.5491 17.2482C42.7849 17.1126 0 18.1598 0 18.4536C0 18.7499 43.1874 19.9754 79.9591 19.8448Z" fill="url(#paint0_linear_275_320)"/>
<defs>
<linearGradient id="paint0_linear_275_320" x1="164.5" y1="0" x2="164.5" y2="27" gradientUnits="userSpaceOnUse">
<stop stop-color="#AE7723"/>
<stop offset="0.411458" stop-color="#FFB23C"/>
<stop offset="0.432292" stop-color="#9B681B"/>
<stop offset="1" stop-color="#4E3002"/>
</linearGradient>
</defs>
</svg>