<svg width="9" height="9" viewBox="0 0 9 9" fill="none" xmlns="http://www.w3.org/2000/svg">
<path d="M8.10184 6.125L6.83184 5.98C6.68251 5.96246 6.53114 5.97899 6.38912 6.02836C6.24709 6.07772 6.1181 6.15863 6.01184 6.265L5.09184 7.185C3.67243 6.46311 2.51873 5.30941 1.79684 3.89L2.72184 2.965C2.93684 2.75 3.04184 2.45 3.00684 2.145L2.86184 0.885001C2.83349 0.641089 2.71643 0.416119 2.53295 0.252924C2.34948 0.08973 2.11239 -0.000291128 1.86684 7.07344e-07H1.00184C0.436837 7.07344e-07 -0.0331633 0.470001 0.00183674 1.035C0.266837 5.305 3.68184 8.715 7.94684 8.98C8.51184 9.015 8.98184 8.545 8.98184 7.98V7.115C8.98684 6.61 8.60684 6.185 8.10184 6.125Z" fill="#F6CD66"/>
</svg>