<svg xmlns="http://www.w3.org/2000/svg" width="82" height="82" viewBox="0 0 82 82" fill="none">
    <path d="M69.7 45.1V57.4L57.4 45.1H32.8C30.6252 45.1 28.5395 44.2361 27.0017 42.6983C25.4639 41.1605 24.6 39.0748 24.6 36.9V8.2C24.6 3.69 28.29 0 32.8 0H73.8C75.9748 0 78.0605 0.863926 79.5983 2.40172C81.1361 3.93952 82 6.02522 82 8.2V36.9C82 39.0748 81.1361 41.1605 79.5983 42.6983C78.0605 44.2361 75.9748 45.1 73.8 45.1H69.7ZM57.4 53.3V61.5C57.4 63.6748 56.5361 65.7605 54.9983 67.2983C53.4605 68.8361 51.3748 69.7 49.2 69.7H24.6L12.3 82V69.7H8.2C6.02522 69.7 3.93952 68.8361 2.40172 67.2983C0.863926 65.7605 0 63.6748 0 61.5V32.8C0 28.29 3.69 24.6 8.2 24.6H16.4V36.9C16.4 41.2495 18.1279 45.421 21.2034 48.4966C24.279 51.5721 28.4504 53.3 32.8 53.3H57.4Z" fill="#E6AD26"/>
</svg>