<svg width="93" height="90" viewBox="0 0 93 90" fill="none" xmlns="http://www.w3.org/2000/svg">
    <path d="M82.1881 72.8199L21.935 89.047C19.9375 89.585 17.8094 89.3125 16.019 88.2895C14.2286 87.2665 12.9225 85.5768 12.388 83.592L0.295657 38.6919C-0.238856 36.7071 0.042033 34.59 1.07653 32.8062C2.11103 31.0224 3.8144 29.7181 5.81192 29.1801L66.0651 12.953C68.0626 12.4151 70.1906 12.6876 71.981 13.7106C73.7714 14.7336 75.0776 16.4233 75.6121 18.408L87.7044 63.3082C88.2389 65.2929 87.958 67.41 86.9235 69.1938C85.889 70.9776 84.1856 72.282 82.1881 72.8199Z" fill="#E6AD26"/>
    <path d="M48.5823 63.5098L23.7492 70.1978C22.9259 70.4195 22.0489 70.3072 21.3109 69.8856C20.573 69.4639 20.0347 68.7675 19.8144 67.9495L14.8306 49.4441C14.6103 48.6261 14.7261 47.7535 15.1525 47.0184C15.5788 46.2832 16.2809 45.7456 17.1041 45.5239L41.9372 38.8359C42.7605 38.6142 43.6375 38.7265 44.3755 39.1482C45.1134 39.5698 45.6517 40.2662 45.872 41.0842L50.8558 59.5896C51.0761 60.4076 50.9603 61.2802 50.5339 62.0154C50.1076 62.7505 49.4055 63.2881 48.5823 63.5098Z" fill="#D8FDFD"/>
    <g filter="url(#filter0_d_0_1)">
        <path d="M61.8855 9.69536C63.5297 5.4341 64.3509 3.30359 65.9972 3.07079C67.6435 2.838 69.0232 4.6573 71.7844 8.29566L72.4992 9.23725C73.2838 10.2718 73.6761 10.7891 74.2153 11.0906C74.7544 11.392 75.3823 11.4433 76.6381 11.5459L77.7791 11.6399C82.1927 12.0035 84.3976 12.1847 85.1383 13.7486C85.877 15.311 84.6613 17.2224 82.2279 21.0438L81.5981 22.0319C80.9075 23.1172 80.5606 23.661 80.4591 24.2854C80.3579 24.9114 80.5119 25.5493 80.8198 26.8233L81.1009 27.984C82.1841 32.4714 82.7264 34.7141 81.5375 35.9125C80.3489 37.1126 78.2157 36.4726 73.9531 35.1957L72.8479 34.8661C71.6367 34.5019 71.0314 34.3215 70.4281 34.4068C69.8249 34.4921 69.2933 34.8332 68.2288 35.5193L67.2618 36.1419C63.5186 38.5508 61.6462 39.7554 60.1737 38.9351C58.6972 38.1118 58.5965 35.8067 58.393 31.1949L58.3415 30.0035C58.2838 28.6924 58.255 28.0368 57.9826 27.4653C57.7136 26.8916 57.2295 26.4653 56.2653 25.6157L55.3859 24.8393C51.9887 21.8441 50.2907 20.3447 50.567 18.637C50.8451 16.9291 52.9148 16.1417 57.0548 14.5704L58.125 14.1637C59.3014 13.7172 59.8887 13.494 60.3249 13.0547C60.7593 12.6155 60.9928 12.0098 61.4598 10.7982L61.8855 9.69536Z" fill="url(#paint0_linear_0_1)"/>
        <path d="M77.7791 11.6399L77.7833 11.6403C82.1941 12.0037 84.3978 12.1852 85.1383 13.7486C85.877 15.311 84.6613 17.2224 82.2279 21.0438L77.7791 11.6399ZM77.7791 11.6399L77.9023 10.145L76.7612 10.051L76.7602 10.0509C75.3715 9.93745 75.1358 9.8867 74.9473 9.78134C74.7465 9.66903 74.5599 9.4721 73.6943 8.33081L73.6939 8.33031M77.7791 11.6399L77.9023 10.145L78.0333 10.1558C80.1297 10.3284 81.8778 10.4724 83.1853 10.7854C84.5498 11.1121 85.8345 11.7141 86.4939 13.1065L86.4944 13.1074C87.1453 14.4843 86.8206 15.8703 86.2415 17.1625C85.6798 18.4159 84.717 19.9278 83.554 21.7541L83.4932 21.8495L83.4928 21.8501L82.8636 22.8372L73.6939 8.33031M73.6939 8.33031L72.9793 7.38887L72.9792 7.38872L72.9003 7.28484C71.5857 5.55238 70.4975 4.11835 69.5242 3.16177C68.5306 2.18514 67.3226 1.36847 65.7872 1.58557C64.2518 1.80267 63.3176 2.92226 62.6337 4.13608C61.9638 5.32501 61.3159 7.00453 60.5331 9.03359C60.5175 9.074 60.5018 9.11454 60.4861 9.15523C60.4861 9.15529 60.4861 9.15535 60.4861 9.15541L60.0605 10.2581L60.0602 10.2587C59.546 11.5927 59.4208 11.8352 59.2594 11.9988C59.1048 12.1542 58.8893 12.2692 57.5927 12.7613L57.5922 12.7615L56.5225 13.168L56.522 13.1682L56.4145 13.209C54.4411 13.9579 52.7956 14.5824 51.6226 15.2477C50.4019 15.9401 49.3341 16.8753 49.0865 18.396L49.0863 18.3974C48.843 19.901 49.5388 21.1428 50.4538 22.2242C51.3417 23.2736 52.6872 24.4597 54.3123 25.8924L54.3931 25.9637L54.3939 25.9644L55.2725 26.7402L55.2736 26.7412C56.3327 27.6744 56.5185 27.8761 56.6246 28.1023L56.6246 28.1023L56.6285 28.1106C56.7391 28.3427 56.7797 28.6314 56.843 30.0692C56.843 30.0693 56.843 30.0694 56.843 30.0695L56.8944 31.2596L56.8944 31.261L56.9001 31.3896C56.9971 33.589 57.077 35.4028 57.3316 36.7618C57.5916 38.1502 58.108 39.5007 59.4432 40.2452L59.4437 40.2455C60.8043 41.0034 62.2097 40.6848 63.4774 40.1193C64.7033 39.5723 66.1872 38.6173 67.9674 37.4715L68.0735 37.4032L68.0738 37.4031L69.0408 36.7805L69.0414 36.7801C70.2201 36.0204 70.4366 35.9205 70.6381 35.892C70.8393 35.8636 71.0752 35.8994 72.4159 36.3026L72.4193 36.3036L73.5227 36.6326L73.5245 36.6332L73.6523 36.6714C75.6753 37.2776 77.3628 37.7832 78.6907 37.9686C80.0661 38.1606 81.5051 38.0761 82.6024 36.9689C83.6787 35.884 83.7996 34.443 83.6643 33.0379C83.5319 31.6619 83.1059 29.8971 82.5892 27.757L82.559 27.6321L82.5588 27.6309L82.2778 26.471C82.2777 26.4707 82.2777 26.4704 82.2776 26.4702C81.9407 25.0757 81.8982 24.7832 81.9399 24.525C81.9805 24.2762 82.106 24.0278 82.8632 22.8378L73.6939 8.33031Z" stroke="white" stroke-width="3"/>
    </g>
    <defs>
        <filter id="filter0_d_0_1" x="43.5366" y="0.0495605" width="48.8176" height="50.1434" filterUnits="userSpaceOnUse" color-interpolation-filters="sRGB">
            <feFlood flood-opacity="0" result="BackgroundImageFix"/>
            <feColorMatrix in="SourceAlpha" type="matrix" values="0 0 0 0 0 0 0 0 0 0 0 0 0 0 0 0 0 0 127 0" result="hardAlpha"/>
            <feOffset dy="4"/>
            <feGaussianBlur stdDeviation="2"/>
            <feComposite in2="hardAlpha" operator="out"/>
            <feColorMatrix type="matrix" values="0 0 0 0 0 0 0 0 0 0 0 0 0 0 0 0 0 0 0.25 0"/>
            <feBlend mode="normal" in2="BackgroundImageFix" result="effect1_dropShadow_0_1"/>
            <feBlend mode="normal" in="SourceGraphic" in2="effect1_dropShadow_0_1" result="shape"/>
        </filter>
        <linearGradient id="paint0_linear_0_1" x1="65.9972" y1="3.07079" x2="70.9136" y2="37.8402" gradientUnits="userSpaceOnUse">
            <stop stop-color="#FFDD56"/>
            <stop offset="0.442708" stop-color="#FFEFB1"/>
            <stop offset="0.515625" stop-color="#EFD25C"/>
            <stop offset="1" stop-color="#FFCC00"/>
        </linearGradient>
    </defs>
</svg>