<svg width="238" height="41" viewBox="0 0 238 41" fill="none" xmlns="http://www.w3.org/2000/svg">
<path d="M236.33 27.6712L1.67131 27.6713C1.22862 27.6713 0.86837 27.3059 0.86837 26.854C0.86837 26.3996 1.22862 26.0342 1.67131 26.0342L236.33 26.0342C236.772 26.0342 237.13 26.3996 237.13 26.8539C237.13 27.3059 236.772 27.6712 236.33 27.6712Z" fill="url(#paint0_linear_290_1480)"/>
<path d="M4.13723 28.8037C4.29499 28.5801 4.34211 28.1738 4.27853 27.8541C4.19847 27.4407 3.90411 27.1137 3.49439 26.8517C3.90411 26.5897 4.19847 26.2651 4.27853 25.8517C4.34211 25.5319 4.29499 25.1233 4.13723 24.9021C3.7275 24.3276 3.08233 24.2723 2.39475 24.4646C1.2998 24.7723 0.07296 26.7171 0.0164464 26.8036C0.00467276 26.8181 4.69196e-06 26.8349 4.6949e-06 26.8517L4.69532e-06 26.8541C4.69827e-06 26.8709 0.00467277 26.8878 0.0164464 26.9022C0.07296 26.9887 1.2998 28.9335 2.39475 29.2412C3.08233 29.4335 3.7275 29.3758 4.13723 28.8037Z" fill="url(#paint1_linear_290_1480)"/>
<path d="M233.865 24.9021C233.707 25.1232 233.658 25.5319 233.721 25.8516C233.804 26.2651 234.098 26.5896 234.506 26.8517C234.098 27.1137 233.804 27.4406 233.721 27.8541C233.658 28.1738 233.707 28.5801 233.865 28.8036C234.275 29.3757 234.92 29.4335 235.608 29.2411C236.703 28.9334 237.929 26.9887 237.986 26.9021C237.995 26.8877 238 26.8709 238 26.8541L238 26.8517C238 26.8348 237.995 26.818 237.986 26.8036C237.929 26.7171 236.703 24.7723 235.608 24.4646C234.92 24.2722 234.275 24.3275 233.865 24.9021Z" fill="url(#paint2_linear_290_1480)"/>
<path d="M92.3429 18.8733C92.503 19.7579 91.9261 20.2916 91.2644 21.1522C90.6569 22.0032 89.6491 23.5873 89.9905 25.4888C90.1789 26.4287 90.7676 27.4816 91.8013 28.2966C92.8327 29.1115 94.2644 29.6043 95.7809 29.4336C97.3232 29.3014 98.9291 28.3807 100.149 26.9912C100.693 26.2532 101.298 25.4912 101.501 24.5032C101.625 24.0272 101.84 23.5681 101.903 23.0657C101.941 22.556 101.976 22.0416 102.014 21.5247C101.957 19.2795 101.305 16.9189 99.9111 14.9405C98.5524 12.9452 96.5391 11.3057 94.2008 10.4211C89.6115 8.50761 83.5292 10.123 80.4068 14.3924C77.1714 18.5872 76.8935 24.9191 79.2812 29.6235C81.6642 34.4001 86.2771 37.6886 90.996 38.9891C93.3602 39.655 95.7644 39.905 98.0744 39.8305C100.382 39.7103 102.581 39.3281 104.623 38.7632C108.711 37.6045 112.076 35.727 114.701 33.9481C117.294 32.1019 119.14 30.287 120.298 28.9528C120.866 28.2701 121.306 27.7437 121.605 27.3879C121.907 27.0321 122.071 26.8518 122.083 26.859C122.095 26.8662 121.958 27.0682 121.685 27.4504C121.407 27.8278 120.998 28.3879 120.468 29.1091C119.371 30.5153 117.579 32.4361 115.005 34.4145C112.396 36.3232 109.024 38.3569 104.847 39.667C100.702 40.9555 95.6937 41.6022 90.6075 40.244C85.5755 38.9771 80.5222 35.5804 77.7954 30.3134C75.0921 25.0994 75.2146 18.0896 78.9563 13.1303C82.6108 8.14462 89.5667 6.25274 95.032 8.49799C100.556 10.5677 104.168 16.2217 104.055 21.6497C104.011 22.2748 103.964 22.8974 103.919 23.5104C103.801 24.1161 103.596 24.7051 103.436 25.2941C103.165 26.4936 102.468 27.5393 101.785 28.4841C100.323 30.3231 98.3287 31.674 96.1293 32.0755C91.613 32.9481 87.544 29.9336 86.6256 26.3085C86.1194 24.4575 86.4891 22.7579 87.0471 21.4791C87.5864 20.1641 88.5 19.2819 89.2888 18.7194C90.1507 18.2146 90.89 18.003 91.4434 18.1232C91.9826 18.205 92.2582 18.4622 92.3429 18.8733Z" fill="url(#paint3_linear_290_1480)"/>
<path d="M64.7269 16.3442C64.9553 15.5389 65.4616 15.2071 66.34 15.3922C66.7332 15.6085 67.3218 15.8874 67.6586 16.5509C68.0636 17.1711 68.2284 18.0293 68.1389 18.8178C67.9529 20.4284 66.9899 21.8395 65.5276 22.8227C64.7482 23.2482 63.8557 23.6737 62.8102 23.5992C61.7977 23.5727 60.7804 23.1448 60.041 22.5102C59.6148 22.176 59.2381 21.8058 58.9508 21.3804C58.7907 21.1664 58.6423 20.9909 58.4445 20.6976L58.1266 19.9476C57.9053 19.4837 57.7405 18.9789 57.6298 18.438C57.465 17.9211 57.4344 17.3538 57.4085 16.7817C57.2601 14.4282 58.6329 12.207 60.22 10.7863L60.8911 10.1757C61.2325 9.97381 61.5268 9.91129 61.7741 9.80552C62.2945 9.59398 62.822 9.42095 63.3895 9.37527C63.9405 9.26469 64.4938 9.22862 65.0472 9.29593C65.6053 9.29352 66.1374 9.39931 66.6555 9.55556C68.7465 10.1157 70.4372 11.3632 71.7676 12.6878C74.4308 15.3922 75.8178 18.4884 76.4206 20.7457C76.7314 21.8779 76.8373 22.8227 76.8585 23.4645C76.8585 24.1112 76.8444 24.4598 76.8138 24.4598C76.7243 24.467 76.7172 23.0415 75.8978 20.914C75.1066 18.813 73.5054 15.9548 70.8799 13.6446C69.5777 12.51 67.993 11.5244 66.2622 11.1734C65.8337 11.0604 65.398 11.0075 64.9601 11.0363C64.5221 10.9979 64.0912 11.0628 63.665 11.1686C63.2293 11.2118 62.8219 11.3873 62.4193 11.5676C62.2121 11.6638 62.0073 11.7166 61.9413 11.7839L61.501 12.2191C60.1917 13.5148 59.3205 15.1158 59.4618 16.7577C59.4853 17.1663 59.5112 17.5726 59.6478 17.9716C59.7255 18.3779 59.8644 18.7721 60.0481 19.1543C60.2106 19.6087 60.3024 19.7505 60.5874 20.0942C60.804 20.4332 61.0653 20.664 61.3244 20.8779C62.2969 21.7481 63.3447 21.3467 63.9687 20.6856C64.6021 19.9644 64.7646 19.0293 64.6822 18.6471C64.5904 18.2601 64.5739 18.4115 64.6139 18.0173C64.5174 17.7336 64.4962 17.1495 64.7269 16.3442Z" fill="url(#paint4_linear_290_1480)"/>
<path d="M145.656 18.8732C145.743 18.4621 146.019 18.2049 146.56 18.1231C147.114 18.0029 147.858 18.2169 148.72 18.7265C149.511 19.2938 150.427 20.1809 150.964 21.503C151.515 22.7891 151.889 24.4935 151.369 26.3517C150.427 29.9888 146.32 32.9768 141.797 32.0634C139.59 31.6451 137.61 30.2605 136.153 28.4118C135.489 27.4503 134.78 26.4022 134.535 25.1906C134.384 24.5992 134.149 24.0127 134.071 23.4021C134.029 22.7843 133.984 22.1617 133.939 21.5343C133.897 16.111 137.521 10.4739 143.073 8.46186C148.546 6.25507 155.494 8.19502 159.102 13.212C162.789 18.188 162.902 25.1858 160.171 30.3854C157.421 35.6332 152.365 38.9986 147.34 40.2607C144.811 40.9098 142.275 41.0972 139.871 40.9554C137.469 40.7655 135.204 40.3016 133.12 39.6573C128.952 38.3424 125.587 36.3111 122.985 34.4024C120.414 32.4264 118.624 30.5104 117.529 29.1042C117.002 28.383 116.592 27.8253 116.316 27.4479C116.043 27.0681 115.907 26.8662 115.918 26.8589C115.93 26.8517 116.095 27.0344 116.396 27.3878C116.695 27.746 117.136 28.2748 117.706 28.9575C118.866 30.2917 120.715 32.1091 123.315 33.9577C125.945 35.7366 129.314 37.6188 133.412 38.7702C135.456 39.3376 137.66 39.7126 139.97 39.8304C142.282 39.9073 144.688 39.6477 147.055 38.9722C151.779 37.6669 156.389 34.3495 158.749 29.5585C161.11 24.8372 160.825 18.4981 157.545 14.3249C154.378 10.0797 148.296 8.50754 143.711 10.4547C141.375 11.3514 139.388 13.0245 138.036 15.0197C136.652 17.0077 136.023 19.3804 135.995 21.6208C136.03 22.1377 136.068 22.6497 136.103 23.1569C136.209 23.6473 136.393 24.1136 136.525 24.5872C136.748 25.5584 137.339 26.3253 137.904 27.0465C139.124 28.4311 140.737 29.3205 142.273 29.4431C143.782 29.597 145.216 29.1042 146.228 28.2724C147.253 27.4551 147.832 26.4022 148.013 25.4671C148.221 24.5584 147.992 23.6304 147.717 22.9069C147.462 22.14 147.031 21.628 146.73 21.1473C146.071 20.2915 145.498 19.7578 145.656 18.8732Z" fill="url(#paint5_linear_290_1480)"/>
<path d="M173.275 16.3442C173.505 17.1495 173.482 17.7336 173.388 18.0173C173.428 18.4115 173.409 18.26 173.32 18.6519C173.239 19.0365 173.407 19.9764 174.045 20.6952C174.673 21.3539 175.724 21.7409 176.699 20.8611C176.96 20.6519 177.217 20.4068 177.431 20.0678L177.746 19.6543L177.968 19.123C178.154 18.7408 178.281 18.3466 178.363 17.9427C178.5 17.5413 178.512 17.135 178.542 16.7264C178.679 15.0845 177.786 13.4907 176.48 12.1998L176.051 11.7719C175.973 11.7142 175.766 11.6517 175.559 11.558C175.156 11.3705 174.746 11.207 174.311 11.1637C173.885 11.0532 173.454 10.9979 173.016 11.0363C172.578 11.0075 172.144 11.07 171.716 11.1782C169.988 11.534 168.405 12.5219 167.105 13.659C164.489 15.9667 162.888 18.8225 162.099 20.9187C161.284 23.0414 161.277 24.467 161.186 24.4598C161.157 24.4598 161.143 24.1112 161.141 23.4621C161.162 22.8203 161.27 21.8731 161.581 20.7385C162.186 18.4788 163.576 15.3754 166.248 12.6734C167.581 11.3489 169.279 10.1012 171.372 9.54833C171.893 9.38727 172.427 9.2935 172.985 9.2935C173.538 9.22379 174.092 9.27429 174.645 9.37766C175.213 9.42333 175.738 9.6108 176.261 9.81754C176.503 9.93052 176.819 9.97382 177.146 10.207L177.808 10.8104C179.399 12.2359 180.749 14.4739 180.591 16.825C180.57 17.3971 180.525 17.9596 180.362 18.4788C180.254 19.0221 180.078 19.5197 179.859 19.9861L179.529 20.7529L179.025 21.414C178.74 21.8395 178.344 22.2049 177.925 22.539C177.177 23.1616 176.162 23.5895 175.149 23.5967C174.108 23.6616 173.221 23.2313 172.451 22.801C170.998 21.8178 170.042 20.4068 169.86 18.801C169.776 18.0125 169.943 17.1566 170.35 16.5412C170.687 15.8826 171.273 15.6037 171.666 15.3922C172.54 15.2071 173.044 15.5389 173.275 16.3442Z" fill="url(#paint6_linear_290_1480)"/>
<path d="M106.618 8.35833C106.618 9.24537 105.914 9.96418 105.045 9.96418C104.176 9.96418 103.472 9.24537 103.472 8.35833C103.472 7.47129 104.176 6.75254 105.045 6.75254C105.914 6.75254 106.618 7.47129 106.618 8.35833Z" fill="url(#paint7_linear_290_1480)"/>
<path d="M134.53 8.35832C134.53 9.24536 133.826 9.96417 132.957 9.96417C132.088 9.96418 131.384 9.24537 131.384 8.35832C131.384 7.47128 132.088 6.75253 132.957 6.75253C133.826 6.75253 134.53 7.47128 134.53 8.35832Z" fill="url(#paint8_linear_290_1480)"/>
<path d="M120.451 1.60577C120.451 2.49281 119.747 3.21156 118.878 3.21156C118.012 3.21156 117.305 2.49281 117.305 1.60577C117.305 0.71873 118.012 -2.06338e-05 118.878 -2.07853e-05C119.747 -2.09372e-05 120.451 0.71873 120.451 1.60577Z" fill="url(#paint9_linear_290_1480)"/>
<path d="M128.478 21.7603L109.52 21.7603L109.52 21.104L128.478 21.104L128.478 21.7603ZM124.567 13.6712L119.001 4.44744L113.434 13.6712L106.097 10.4355L109.238 23.6354L128.761 23.6354L131.904 10.4355L124.567 13.6712Z" fill="url(#paint10_linear_290_1480)"/>
<defs>
<linearGradient id="paint0_linear_290_1480" x1="19.5" y1="-17.5" x2="236.593" y2="40.2735" gradientUnits="userSpaceOnUse">
<stop stop-color="#AE7723"/>
<stop offset="0.426528" stop-color="#FFB23C"/>
<stop offset="0.432292" stop-color="#9B681B"/>
<stop offset="1" stop-color="#4E3002"/>
</linearGradient>
<linearGradient id="paint1_linear_290_1480" x1="19.5" y1="-17.5" x2="236.593" y2="40.2735" gradientUnits="userSpaceOnUse">
<stop stop-color="#AE7723"/>
<stop offset="0.426528" stop-color="#FFB23C"/>
<stop offset="0.432292" stop-color="#9B681B"/>
<stop offset="1" stop-color="#4E3002"/>
</linearGradient>
<linearGradient id="paint2_linear_290_1480" x1="19.5" y1="-17.5" x2="236.593" y2="40.2735" gradientUnits="userSpaceOnUse">
<stop stop-color="#AE7723"/>
<stop offset="0.426528" stop-color="#FFB23C"/>
<stop offset="0.432292" stop-color="#9B681B"/>
<stop offset="1" stop-color="#4E3002"/>
</linearGradient>
<linearGradient id="paint3_linear_290_1480" x1="19.5" y1="-17.5" x2="236.593" y2="40.2735" gradientUnits="userSpaceOnUse">
<stop stop-color="#AE7723"/>
<stop offset="0.426528" stop-color="#FFB23C"/>
<stop offset="0.432292" stop-color="#9B681B"/>
<stop offset="1" stop-color="#4E3002"/>
</linearGradient>
<linearGradient id="paint4_linear_290_1480" x1="19.5" y1="-17.5" x2="236.593" y2="40.2735" gradientUnits="userSpaceOnUse">
<stop stop-color="#AE7723"/>
<stop offset="0.426528" stop-color="#FFB23C"/>
<stop offset="0.432292" stop-color="#9B681B"/>
<stop offset="1" stop-color="#4E3002"/>
</linearGradient>
<linearGradient id="paint5_linear_290_1480" x1="19.5" y1="-17.5" x2="236.593" y2="40.2735" gradientUnits="userSpaceOnUse">
<stop stop-color="#AE7723"/>
<stop offset="0.426528" stop-color="#FFB23C"/>
<stop offset="0.432292" stop-color="#9B681B"/>
<stop offset="1" stop-color="#4E3002"/>
</linearGradient>
<linearGradient id="paint6_linear_290_1480" x1="19.5" y1="-17.5" x2="236.593" y2="40.2735" gradientUnits="userSpaceOnUse">
<stop stop-color="#AE7723"/>
<stop offset="0.426528" stop-color="#FFB23C"/>
<stop offset="0.432292" stop-color="#9B681B"/>
<stop offset="1" stop-color="#4E3002"/>
</linearGradient>
<linearGradient id="paint7_linear_290_1480" x1="19.5" y1="-17.5" x2="236.593" y2="40.2735" gradientUnits="userSpaceOnUse">
<stop stop-color="#AE7723"/>
<stop offset="0.426528" stop-color="#FFB23C"/>
<stop offset="0.432292" stop-color="#9B681B"/>
<stop offset="1" stop-color="#4E3002"/>
</linearGradient>
<linearGradient id="paint8_linear_290_1480" x1="19.5" y1="-17.5" x2="236.593" y2="40.2735" gradientUnits="userSpaceOnUse">
<stop stop-color="#AE7723"/>
<stop offset="0.426528" stop-color="#FFB23C"/>
<stop offset="0.432292" stop-color="#9B681B"/>
<stop offset="1" stop-color="#4E3002"/>
</linearGradient>
<linearGradient id="paint9_linear_290_1480" x1="19.5" y1="-17.5" x2="236.593" y2="40.2735" gradientUnits="userSpaceOnUse">
<stop stop-color="#AE7723"/>
<stop offset="0.426528" stop-color="#FFB23C"/>
<stop offset="0.432292" stop-color="#9B681B"/>
<stop offset="1" stop-color="#4E3002"/>
</linearGradient>
<linearGradient id="paint10_linear_290_1480" x1="19.5" y1="-17.5" x2="236.593" y2="40.2735" gradientUnits="userSpaceOnUse">
<stop stop-color="#AE7723"/>
<stop offset="0.426528" stop-color="#FFB23C"/>
<stop offset="0.432292" stop-color="#9B681B"/>
<stop offset="1" stop-color="#4E3002"/>
</linearGradient>
</defs>
</svg>