<svg width="164" height="18" viewBox="0 0 164 18" fill="none" xmlns="http://www.w3.org/2000/svg">
<path d="M77.5324 5.13749C77.465 6.78889 80.5024 6.51469 81.153 8.10291C81.4807 6.75038 80.9573 5.22997 79.8655 4.36613C78.9158 3.61459 77.5897 3.7492 77.5324 5.13749Z" fill="url(#paint0_linear_629_1452)"/>
<path d="M86.468 5.13749C86.5353 6.78889 83.498 6.51469 82.8462 8.10291C82.5196 6.75038 83.0431 5.22997 84.1349 4.36613C85.0846 3.61459 86.4107 3.7492 86.468 5.13749Z" fill="url(#paint1_linear_629_1452)"/>
<path d="M83.8798 0.944996C83.6655 0.789203 83.2741 0.741842 82.9663 0.804159C82.5674 0.883924 82.2534 1.17431 82.0003 1.57564C81.7486 1.17431 81.4345 0.883924 81.0357 0.804159C80.7278 0.741842 80.3352 0.789203 80.1209 0.944996C79.5687 1.34632 79.5151 1.98194 79.7008 2.65871C79.9962 3.7343 81.4432 4.3824 82.0003 5.35217C82.4752 4.41231 84.0057 3.7343 84.3011 2.65871C84.4855 1.98194 84.432 1.34632 83.8798 0.944996Z" fill="url(#paint2_linear_629_1452)"/>
<path d="M81.9994 16.7037C79.1927 16.7037 78.1707 14.697 77.8317 13.9083C77.3979 10.9409 79.7784 9.68433 81.0759 10.142C80.1661 11.1138 80.5013 12.5159 80.6933 13.1843C80.702 13.2155 80.7132 13.2466 80.7232 13.2778C80.4191 13.3922 80.1249 13.6118 80.1424 13.8723C80.1985 14.7169 81.0908 14.8357 81.4585 14.8079C81.6517 14.7943 81.8324 14.7534 81.9994 14.6896C82.1677 14.7534 82.3471 14.7943 82.5403 14.8079C82.9092 14.8357 83.8004 14.7169 83.8577 13.8723C83.8752 13.6118 83.581 13.3922 83.2769 13.2778C83.2869 13.2466 83.2981 13.2155 83.3068 13.1843C83.4988 12.5159 83.834 11.1138 82.9242 10.142C84.2217 9.68433 86.6021 10.9409 86.1684 13.9083C85.8294 14.697 84.8074 16.7037 81.9994 16.7037ZM81.9994 10.7261C82.731 11.4629 82.2761 12.2641 82.1166 12.5757C82.0829 12.6405 82.043 12.698 81.9994 12.7529C81.957 12.698 81.9159 12.6405 81.8835 12.5757C81.724 12.2641 81.2691 11.4629 81.9994 10.7261ZM98.3875 9.11475C97.5974 7.41998 95.916 6.69947 94.064 6.96132C92.7304 7.14927 90.9481 8.28856 90.1717 9.5349C91.2186 6.93503 89.7703 5.87813 89.1185 5.66975C88.0068 5.31728 86.9499 6.0763 86.5997 6.72814C86.2981 7.28662 86.2282 8.64488 87.4908 9.16485C88.4841 9.57241 89.121 8.40197 88.4754 7.95939C88.2037 7.77244 87.8921 7.49938 87.9831 7.20287C88.0691 6.92481 88.4567 6.66681 88.7795 6.67217C89.2992 6.68189 89.8676 7.37624 89.8638 7.99941C89.8588 8.84206 89.7766 9.5324 89.0412 10.5757C88.772 10.9185 87.4285 12.6707 87.0234 13.1741C86.6495 9.32065 83.8627 9.06502 82.9865 9.22717C82.6052 9.29821 82.2786 9.39655 81.9994 9.51632C81.7215 9.39655 81.3949 9.29821 81.0136 9.22717C80.1374 9.06502 77.3506 9.32065 76.9767 13.1741C76.5716 12.6707 75.2281 10.9185 74.9589 10.5757C74.2235 9.5324 74.14 8.84206 74.1363 7.99941C74.1325 7.37624 74.6996 6.68189 75.2206 6.67217C75.5434 6.66681 75.9298 6.92481 76.017 7.20287C76.108 7.49938 75.7964 7.77244 75.5247 7.95939C74.8778 8.40197 75.516 9.57241 76.5093 9.16485C77.7718 8.64488 77.702 7.28662 77.4004 6.72814C77.049 6.0763 75.9921 5.31728 74.8816 5.66975C74.2297 5.87813 72.7815 6.93503 73.8272 9.5349C73.0519 8.28856 71.2684 7.14927 69.9361 6.96132C68.084 6.69947 66.4027 7.41998 65.6126 9.11475C64.694 11.0855 65.615 12.9759 66.1622 13.7014C66.8963 14.6712 68.5514 15.2632 69.5223 15.0149C71.5738 14.4915 72.8538 11.3158 70.4546 10.234C69.6906 9.88885 68.5938 10.0607 68.1052 10.5792C67.2964 11.4394 67.8647 12.0299 68.1351 12.2058C69.1846 12.8863 69.7267 11.2661 70.2851 12.363C70.5705 12.9224 69.8862 13.6951 69.2008 13.8897C68.5277 14.0815 67.6865 13.846 67.0596 13.29C66.0538 12.3976 65.721 10.8037 66.2843 9.5835C66.8477 8.36346 68.2772 7.58313 69.6083 7.77008C70.4197 7.88449 71.6909 8.30214 72.4911 9.0573C73.7013 10.2018 75.2143 12.4 76.4308 14.0792C76.2663 13.9944 76.093 13.918 75.9073 13.8572C75.577 13.75 75.2143 13.6813 74.8404 13.6916C74.747 13.6941 74.6535 13.7076 74.56 13.7165C74.4665 13.7237 74.3731 13.7437 74.2771 13.7661C74.0877 13.8123 73.8833 13.8907 73.7013 14.0179C73.6589 14.048 73.6153 14.0777 73.5717 14.1088C73.533 14.1449 73.4931 14.1814 73.4533 14.2184C73.371 14.2909 73.3074 14.3795 73.2377 14.4677C73.2015 14.51 73.1791 14.5611 73.1492 14.6089C73.1217 14.6575 73.0893 14.7047 73.0694 14.7568C73.0258 14.8605 72.9784 14.9637 72.9535 15.0747C72.8887 15.2929 72.8812 15.527 72.9011 15.7515C72.9336 15.971 72.9909 16.1804 73.0856 16.3522C73.2638 16.7037 73.5268 16.9282 73.7412 17.0202C73.8459 17.0704 73.9456 17.0825 74.0204 17.0714C74.0976 17.0602 74.1512 17.0227 74.1874 16.9578C74.2235 16.8932 74.2322 16.8221 74.2235 16.75C74.2198 16.7139 74.2111 16.6765 74.1986 16.6405C74.1874 16.6015 74.1749 16.5606 74.1575 16.5208C74.0926 16.361 73.9979 16.1755 73.9418 15.9696C73.9082 15.8673 73.8982 15.7602 73.8895 15.657C73.8932 15.5548 73.897 15.4501 73.9306 15.3488C73.9556 15.2456 74.0104 15.1546 74.0602 15.0714C74.1213 14.9974 74.1811 14.9277 74.2509 14.8903C74.3145 14.8416 74.4055 14.8104 74.5114 14.7792C74.6174 14.7471 74.7457 14.7384 74.8666 14.7169C75.1146 14.6999 75.3751 14.7159 75.6331 14.7647C75.8936 14.8094 76.1466 14.899 76.3884 14.9964C76.6302 15.0923 76.8558 15.2218 77.0689 15.3416C77.3194 15.4925 77.545 15.6443 77.7407 15.7802C77.9999 16.0845 78.3501 16.4832 78.3501 16.4832C78.3501 16.4832 78.8013 16.9044 79.0606 17.0878C79.9504 17.7145 80.9699 18.0164 81.9994 17.9988C83.0289 18.0164 84.0496 17.7145 84.9395 17.0878C85.1227 16.9578 85.7584 16.3026 86.2008 15.8216C86.4102 15.6755 86.6557 15.5076 86.9312 15.3416C87.1431 15.2218 87.3699 15.0923 87.6104 14.9964C87.8522 14.899 88.1065 14.8094 88.3657 14.7647C88.625 14.7159 88.8842 14.6999 89.1335 14.7169C89.2544 14.7384 89.3815 14.7471 89.4887 14.7792C89.5946 14.8104 89.6856 14.8416 89.7492 14.8903C89.8189 14.9277 89.8788 14.9974 89.9398 15.0714C89.9897 15.1546 90.0445 15.2456 90.0682 15.3488C90.1031 15.4501 90.1069 15.5548 90.1106 15.657C90.1006 15.7602 90.0919 15.8673 90.0583 15.9696C90.0022 16.1755 89.9062 16.361 89.8426 16.5208C89.8252 16.5606 89.8127 16.6015 89.8015 16.6405C89.789 16.6765 89.7803 16.7139 89.7766 16.75C89.7679 16.8221 89.7766 16.8932 89.8127 16.9578C89.8476 17.0227 89.9025 17.0602 89.9785 17.0714C90.0545 17.0825 90.153 17.0704 90.2589 17.0202C90.4733 16.9282 90.735 16.7037 90.9145 16.3522C91.0092 16.1804 91.0665 15.971 91.0989 15.7515C91.1176 15.527 91.1102 15.2929 91.0454 15.0747C91.0217 14.9637 90.9731 14.8605 90.9307 14.7568C90.9095 14.7047 90.8771 14.6575 90.8509 14.6089C90.821 14.5611 90.7973 14.51 90.7612 14.4677C90.6926 14.3795 90.6291 14.2909 90.5456 14.2184C90.5057 14.1814 90.4671 14.1449 90.4284 14.1088C90.3836 14.0777 90.3412 14.048 90.2988 14.0179C90.1168 13.8907 89.9112 13.8123 89.7217 13.7661C89.627 13.7437 89.5323 13.7237 89.4401 13.7165C89.3466 13.7076 89.2531 13.6941 89.1596 13.6916C88.7845 13.6813 88.4231 13.75 88.0928 13.8572C87.9071 13.918 87.7326 13.9944 87.5693 14.0792C88.7857 12.4 90.2988 10.2018 91.509 9.0573C92.3091 8.30214 93.5804 7.88449 94.3905 7.77008C95.7229 7.58313 97.1512 8.36346 97.7158 9.5835C98.2791 10.8037 97.9463 12.3976 96.9405 13.29C96.3136 13.846 95.4723 14.0815 94.7981 13.8897C94.1138 13.6951 93.4296 12.9224 93.7138 12.363C94.2721 11.2661 94.8143 12.8863 95.865 12.2058C96.1354 12.0299 96.7037 11.4394 95.8949 10.5792C95.4051 10.0607 94.3095 9.88885 93.5443 10.234C91.1463 11.3158 92.4263 14.4915 94.4778 15.0149C95.4474 15.2632 97.1038 14.6712 97.8367 13.7014C98.385 12.9759 99.3061 11.0855 98.3875 9.11475Z" fill="url(#paint3_linear_629_1452)"/>
<path d="M142.64 15.7289C123.237 16.5469 97.8082 16.6039 96.8012 16.6039C95.7929 16.6039 92.166 15.8424 92.166 16.8156C92.166 17.7703 95.9026 16.949 96.7089 16.949C97.5153 16.949 123.479 16.9232 142.831 17.2996C151.766 17.4738 161.241 19.1812 161.241 16.5255C161.241 13.8696 157.924 15.0848 142.64 15.7289Z" fill="url(#paint4_linear_629_1452)"/>
<path d="M164 16.4422C164 17.044 163.512 17.5328 162.91 17.5328C162.308 17.5328 161.82 17.044 161.82 16.4422C161.82 15.84 162.308 15.3527 162.91 15.3527C163.512 15.3527 164 15.84 164 16.4422Z" fill="url(#paint5_linear_629_1452)"/>
<path d="M21.3569 15.7289C40.7612 16.5469 66.189 16.6039 67.1973 16.6039C68.2044 16.6039 71.8325 15.8424 71.8325 16.8156C71.8325 17.7703 68.0947 16.949 67.2896 16.949C66.4832 16.949 40.5194 16.9232 21.1675 17.2996C12.2325 17.4738 2.75781 19.1812 2.75781 16.5255C2.75781 13.8696 6.07307 15.0848 21.3569 15.7289Z" fill="url(#paint6_linear_629_1452)"/>
<path d="M0 16.4422C0 17.044 0.487318 17.5328 1.0893 17.5328C1.69128 17.5328 2.17985 17.044 2.17985 16.4422C2.17985 15.84 1.69128 15.3527 1.0893 15.3527C0.487318 15.3527 0 15.84 0 16.4422Z" fill="url(#paint7_linear_629_1452)"/>
<defs>
<linearGradient id="paint0_linear_629_1452" x1="79.3905" y1="8.10291" x2="79.3905" y2="3.91296" gradientUnits="userSpaceOnUse">
<stop stop-color="#AE7723"/>
<stop offset="0.411458" stop-color="#FFB23C"/>
<stop offset="0.432292" stop-color="#9B681B"/>
<stop offset="1" stop-color="#4E3002"/>
</linearGradient>
<linearGradient id="paint1_linear_629_1452" x1="84.6096" y1="8.10291" x2="84.6096" y2="3.91296" gradientUnits="userSpaceOnUse">
<stop stop-color="#AE7723"/>
<stop offset="0.411458" stop-color="#FFB23C"/>
<stop offset="0.432292" stop-color="#9B681B"/>
<stop offset="1" stop-color="#4E3002"/>
</linearGradient>
<linearGradient id="paint2_linear_629_1452" x1="82.0005" y1="5.35217" x2="82.0005" y2="0.777575" gradientUnits="userSpaceOnUse">
<stop stop-color="#AE7723"/>
<stop offset="0.411458" stop-color="#FFB23C"/>
<stop offset="0.432292" stop-color="#9B681B"/>
<stop offset="1" stop-color="#4E3002"/>
</linearGradient>
<linearGradient id="paint3_linear_629_1452" x1="82" y1="17.9995" x2="82" y2="5.58029" gradientUnits="userSpaceOnUse">
<stop stop-color="#AE7723"/>
<stop offset="0.411458" stop-color="#FFB23C"/>
<stop offset="0.432292" stop-color="#9B681B"/>
<stop offset="1" stop-color="#4E3002"/>
</linearGradient>
<linearGradient id="paint4_linear_629_1452" x1="126.703" y1="17.9999" x2="126.703" y2="14.8849" gradientUnits="userSpaceOnUse">
<stop stop-color="#AE7723"/>
<stop offset="0.411458" stop-color="#FFB23C"/>
<stop offset="0.432292" stop-color="#9B681B"/>
<stop offset="1" stop-color="#4E3002"/>
</linearGradient>
<linearGradient id="paint5_linear_629_1452" x1="162.91" y1="17.5328" x2="162.91" y2="15.3527" gradientUnits="userSpaceOnUse">
<stop stop-color="#AE7723"/>
<stop offset="0.411458" stop-color="#FFB23C"/>
<stop offset="0.432292" stop-color="#9B681B"/>
<stop offset="1" stop-color="#4E3002"/>
</linearGradient>
<linearGradient id="paint6_linear_629_1452" x1="37.2951" y1="17.9999" x2="37.2951" y2="14.8849" gradientUnits="userSpaceOnUse">
<stop stop-color="#AE7723"/>
<stop offset="0.411458" stop-color="#FFB23C"/>
<stop offset="0.432292" stop-color="#9B681B"/>
<stop offset="1" stop-color="#4E3002"/>
</linearGradient>
<linearGradient id="paint7_linear_629_1452" x1="1.08992" y1="17.5328" x2="1.08992" y2="15.3527" gradientUnits="userSpaceOnUse">
<stop stop-color="#AE7723"/>
<stop offset="0.411458" stop-color="#FFB23C"/>
<stop offset="0.432292" stop-color="#9B681B"/>
<stop offset="1" stop-color="#4E3002"/>
</linearGradient>
</defs>
</svg>