<svg width="176" height="31" viewBox="0 0 176 31" fill="none" xmlns="http://www.w3.org/2000/svg">
<path d="M173.66 28.9429H99.0441C98.9307 28.9429 98.8374 28.6789 98.8374 28.3533C98.8374 28.0283 98.9307 27.7643 99.0441 27.7643H173.66C173.773 27.7643 173.865 28.0283 173.865 28.3533C173.865 28.6789 173.773 28.9429 173.66 28.9429Z" fill="url(#paint0_linear_275_303)"/>
<path d="M172.409 26.9497C172.293 27.1096 172.259 27.4028 172.304 27.6336C172.364 27.9294 172.581 28.1643 172.88 28.3534C172.581 28.5414 172.364 28.7763 172.304 29.0737C172.259 29.3044 172.293 29.5961 172.409 29.7565C172.709 30.1695 173.184 30.2096 173.689 30.0711C174.493 29.8508 175.393 28.4508 175.436 28.3898C175.443 28.3789 175.447 28.3669 175.447 28.3549V28.3534V28.3523C175.447 28.3403 175.443 28.3284 175.436 28.3174C175.393 28.2549 174.493 26.8565 173.689 26.6362C173.184 26.4976 172.709 26.5377 172.409 26.9497Z" fill="url(#paint1_linear_275_303)"/>
<path d="M87.6759 28.9429C87.4839 29.0043 86.2292 25.7747 84.9026 20.3403C84.2626 17.6189 83.5706 14.3481 83.2892 10.6147C83.1772 8.74701 83.1026 6.76008 83.5346 4.66688C83.7479 3.63088 84.0879 2.53195 84.8612 1.56008C85.0559 1.32261 85.2999 1.11061 85.5252 0.890747C85.7866 0.706881 86.0666 0.537682 86.3532 0.378881C86.6732 0.266882 87.0386 0.141283 87.3426 0.080349L87.7372 0.0412827L87.9346 0.0215473L88.0332 0.0111485L88.0826 0.00688171L88.1879 0.00168037L88.2172 0.00274849C89.4639 -0.0492516 90.8399 0.635014 91.5319 1.66835C92.2479 2.67781 92.5586 3.78982 92.7159 4.83195C93.0372 6.93875 92.8986 8.92155 92.7092 10.7814C92.2812 14.5002 91.4732 17.7429 90.7386 20.4387C89.2239 25.8241 87.8666 29.0095 87.6759 28.9429C87.4639 28.872 88.4479 25.572 89.6772 20.1736C90.2692 17.4736 90.9546 14.2413 91.2906 10.6402C91.4386 8.84808 91.5279 6.93768 91.2212 5.08302C90.9452 3.22928 90.0239 1.46421 88.2066 1.54968C86.3852 1.44395 85.3612 3.13875 85.0146 4.98662C84.6119 6.81742 84.6386 8.73608 84.7106 10.5283C84.9066 14.1388 85.4746 17.3934 85.9719 20.1106C87.0132 25.5497 87.8919 28.8788 87.6759 28.9429Z" fill="url(#paint2_linear_275_303)"/>
<path d="M87.6761 28.943C87.4841 28.7987 89.5467 26.0961 92.1401 21.3404C92.7774 20.1498 93.4294 18.8216 94.0121 17.3617C94.5907 15.907 95.0961 14.2961 95.2414 12.6165C95.4147 10.9403 94.9774 9.21232 93.6227 8.21232C92.9334 7.72939 92.0881 7.39765 91.1707 7.19605C90.7174 7.08566 90.2467 7.05912 89.7827 6.98046C89.2694 6.95659 88.7547 6.93365 88.2361 6.90965C86.3001 6.89766 84.2707 7.17899 82.8414 8.11379C82.1374 8.58566 81.5827 9.20179 81.2601 9.94712C80.9494 10.7003 80.8321 11.5321 80.8161 12.3643C80.9387 15.755 82.3361 18.7909 83.4681 21.2018C85.8761 26.0498 87.8761 28.8029 87.6761 28.943C87.5347 29.0565 85.212 26.531 82.4974 21.7044C81.8307 20.4925 81.1507 19.1284 80.564 17.5899C79.9867 16.0498 79.4734 14.3269 79.3907 12.3842C79.3867 11.4107 79.5001 10.379 79.9001 9.37112C80.3121 8.36179 81.0801 7.47366 82.0014 6.85339C83.9067 5.62166 86.1014 5.36179 88.3041 5.36432C88.8267 5.38832 89.3454 5.41232 89.8614 5.43619C90.4121 5.52166 90.9694 5.56272 91.5027 5.69352C92.5654 5.93512 93.6147 6.33619 94.5334 7.00032C95.4347 7.69352 96.1014 8.67792 96.4161 9.71072C96.7574 10.7471 96.7441 11.7831 96.6614 12.7414C96.4507 14.6643 95.8507 16.3523 95.1947 17.8565C94.5334 19.3617 93.8041 20.6961 93.0907 21.8805C90.1974 26.5951 87.8187 29.0617 87.6761 28.943Z" fill="url(#paint3_linear_275_303)"/>
<path d="M87.6757 28.9428C87.5437 28.7214 91.1463 26.7652 96.281 22.7615C97.541 21.7438 98.8957 20.5787 100.105 19.1693C100.698 18.4683 101.278 17.6897 101.584 16.8506C101.904 16.011 101.893 15.1958 101.337 14.5682C100.118 13.2949 97.7757 12.7652 95.5437 12.4521C93.2437 12.1548 90.861 12.072 88.3343 12.0454C85.881 12.0772 83.429 12.1053 81.1437 12.4136C80.001 12.5641 78.885 12.7521 77.8437 13.0469C77.309 13.1668 76.8463 13.3985 76.3517 13.5625C75.9263 13.8094 75.4503 14.0078 75.137 14.3225C74.4383 14.9026 74.173 15.6454 74.349 16.4813C74.5197 17.3162 75.0103 18.135 75.5383 18.8735C76.6583 20.336 77.9743 21.5454 79.201 22.5975C81.681 24.6897 83.8783 26.1855 85.3797 27.2318C86.8877 28.2745 87.729 28.8469 87.6757 28.9428C87.6263 29.035 86.6797 28.636 85.0623 27.7438C83.4503 26.8454 81.145 25.4813 78.5104 23.4454C77.2024 22.4147 75.7997 21.2256 74.5197 19.6532C73.913 18.8412 73.2957 17.9376 73.017 16.7564C72.8877 16.1761 72.857 15.484 73.093 14.8573L73.2703 14.3829C73.3463 14.236 73.4517 14.1094 73.545 13.972C73.729 13.6897 73.9397 13.4412 74.193 13.2564C74.6597 12.7974 75.2077 12.5532 75.7437 12.2428C76.297 12.0412 76.853 11.7682 77.4277 11.6292C78.5717 11.2897 79.7503 11.0788 80.9477 10.9105C83.3503 10.5682 85.8063 10.5308 88.3623 10.4985C90.8477 10.524 93.365 10.6188 95.7557 10.9506C96.3543 11.06 96.9477 11.1682 97.5357 11.2734C98.1223 11.4121 98.7023 11.5788 99.2743 11.7412C100.4 12.1693 101.556 12.6386 102.433 13.6589C102.848 14.1854 103.15 14.8454 103.18 15.5173C103.229 16.1897 103.07 16.8094 102.85 17.3443C102.412 18.435 101.737 19.2615 101.072 20.011C99.7183 21.4985 98.2823 22.6386 96.9477 23.6282C94.2583 25.5855 91.9343 26.9136 90.3063 27.7839C88.6757 28.6495 87.725 29.035 87.6757 28.9428Z" fill="url(#paint4_linear_275_303)"/>
<path d="M130.212 19.1387C130.681 18.9788 131.281 19.584 130.968 20.7976C130.788 21.36 130.383 22.0137 129.624 22.4778C128.865 22.9616 127.72 23.0923 126.728 22.7147C125.761 22.3319 124.793 21.5293 124.443 20.335C124.013 19.1908 124.196 17.8804 124.82 16.7882C125.449 15.6814 126.604 14.8445 127.888 14.5574C129.172 14.2746 130.569 14.4267 131.825 15.071C133.211 15.771 134.192 17.184 134.527 18.7231C134.881 20.2653 134.649 21.9403 133.883 23.3908C133.112 24.8564 131.827 25.9642 130.409 26.7173C128.997 27.5215 127.423 27.884 125.856 28.1548C122.704 28.6668 119.423 28.1574 116.577 26.9694C113.756 25.7496 111.285 24.1626 108.733 23.2507C106.188 22.3309 103.58 22.4137 101.401 23.1319C99.1905 23.8028 97.5119 25.0908 96.1745 26.16C94.8599 27.283 94.6585 27.0897 95.9479 25.8882C97.2612 24.7439 98.9359 23.3507 101.227 22.5668C103.468 21.7319 106.315 21.5574 109.027 22.471C111.729 23.359 114.279 24.9106 117.015 26.0069C119.744 27.0642 122.784 27.46 125.705 26.935C128.592 26.496 131.508 25.1163 132.733 22.7319C134.005 20.3934 133.231 17.1986 131.168 16.2215C130.237 15.7413 129.125 15.6746 128.2 15.9402C127.265 16.2257 126.615 16.872 126.305 17.584C126 18.3002 125.999 19.1173 126.309 19.6283C126.516 20.171 127.048 20.4684 127.467 20.6043C127.916 20.7069 128.231 20.6376 128.487 20.5069C128.76 20.3653 128.968 20.1522 129.145 19.9762C129.468 19.6293 129.679 19.2814 130.212 19.1387Z" fill="url(#paint5_linear_275_303)"/>
<path d="M1.78675 28.9429H76.4027C76.5161 28.9429 76.6081 28.6789 76.6081 28.3533C76.6081 28.0283 76.5161 27.7643 76.4027 27.7643H1.78675C1.67342 27.7643 1.58008 28.0283 1.58008 28.3533C1.58008 28.6789 1.67342 28.9429 1.78675 28.9429Z" fill="url(#paint6_linear_275_303)"/>
<path d="M1.75734 26.6362C0.95334 26.8565 0.0520104 28.2549 0.0106771 28.3174C0.00267708 28.3284 0 28.3403 0 28.3523V28.3534V28.3549C0 28.3669 0.00267708 28.3789 0.0106771 28.3898C0.0520104 28.4508 0.95334 29.8508 1.75734 30.0711C2.26267 30.2096 2.736 30.1695 3.036 29.7565C3.15334 29.5961 3.18801 29.3044 3.14134 29.0737C3.08134 28.7763 2.86533 28.5414 2.56533 28.3534C2.86533 28.1643 3.08134 27.9294 3.14134 27.6336C3.18801 27.4028 3.15334 27.1096 3.036 26.9497C2.736 26.5377 2.26267 26.4976 1.75734 26.6362Z" fill="url(#paint7_linear_275_303)"/>
<path d="M45.2334 19.1387C44.764 18.9788 44.1654 19.584 44.4787 20.7976C44.6587 21.36 45.064 22.0137 45.8227 22.4778C46.5814 22.9616 47.7254 23.0923 48.7187 22.7147C49.684 22.3319 50.6534 21.5293 51.004 20.335C51.432 19.1908 51.2494 17.8804 50.6267 16.7882C49.9961 15.6814 48.8427 14.8445 47.5574 14.5574C46.2747 14.2746 44.876 14.4267 43.6214 15.071C42.236 15.771 41.2547 17.184 40.9187 18.7231C40.5654 20.2653 40.7974 21.9403 41.564 23.3908C42.3334 24.8564 43.6187 25.9642 45.0374 26.7173C46.4494 27.5215 48.0227 27.884 49.5894 28.1548C52.7414 28.6668 56.0227 28.1574 58.868 26.9694C61.6894 25.7496 64.1614 24.1626 66.7134 23.2507C69.2587 22.3309 71.8654 22.4137 74.0441 23.1319C76.2561 23.8028 77.9347 25.0908 79.2707 26.16C80.5854 27.283 80.788 27.0897 79.4987 25.8882C78.1854 24.7439 76.5107 23.3507 74.22 22.5668C71.9787 21.7319 69.1307 21.5574 66.42 22.471C63.7174 23.359 61.1667 24.9106 58.432 26.0069C55.7027 27.0642 52.6627 27.46 49.74 26.935C46.8547 26.496 43.9374 25.1163 42.7121 22.7319C41.4414 20.3934 42.2161 17.1986 44.2787 16.2215C45.2081 15.7413 46.3214 15.6746 47.2454 15.9402C48.1814 16.2257 48.8307 16.872 49.14 17.584C49.4454 18.3002 49.448 19.1173 49.1374 19.6283C48.9294 20.171 48.3987 20.4684 47.98 20.6043C47.5307 20.7069 47.2161 20.6376 46.9601 20.5069C46.6867 20.3653 46.4787 20.1522 46.3 19.9762C45.9774 19.6293 45.7667 19.2814 45.2334 19.1387Z" fill="url(#paint8_linear_275_303)"/>
<defs>
<linearGradient id="paint0_linear_275_303" x1="136.351" y1="28.9429" x2="136.351" y2="27.7643" gradientUnits="userSpaceOnUse">
<stop stop-color="#AE7723"/>
<stop offset="0.411458" stop-color="#FFB23C"/>
<stop offset="0.432292" stop-color="#9B681B"/>
<stop offset="1" stop-color="#4E3002"/>
</linearGradient>
<linearGradient id="paint1_linear_275_303" x1="173.866" y1="30.1429" x2="173.866" y2="26.5643" gradientUnits="userSpaceOnUse">
<stop stop-color="#AE7723"/>
<stop offset="0.411458" stop-color="#FFB23C"/>
<stop offset="0.432292" stop-color="#9B681B"/>
<stop offset="1" stop-color="#4E3002"/>
</linearGradient>
<linearGradient id="paint2_linear_275_303" x1="88.0552" y1="28.9439" x2="88.0552" y2="-2.28882e-05" gradientUnits="userSpaceOnUse">
<stop stop-color="#AE7723"/>
<stop offset="0.411458" stop-color="#FFB23C"/>
<stop offset="0.432292" stop-color="#9B681B"/>
<stop offset="1" stop-color="#4E3002"/>
</linearGradient>
<linearGradient id="paint3_linear_275_303" x1="88.0506" y1="28.9471" x2="88.0506" y2="5.3643" gradientUnits="userSpaceOnUse">
<stop stop-color="#AE7723"/>
<stop offset="0.411458" stop-color="#FFB23C"/>
<stop offset="0.432292" stop-color="#9B681B"/>
<stop offset="1" stop-color="#4E3002"/>
</linearGradient>
<linearGradient id="paint4_linear_275_303" x1="88.0531" y1="28.9561" x2="88.0531" y2="10.4985" gradientUnits="userSpaceOnUse">
<stop stop-color="#AE7723"/>
<stop offset="0.411458" stop-color="#FFB23C"/>
<stop offset="0.432292" stop-color="#9B681B"/>
<stop offset="1" stop-color="#4E3002"/>
</linearGradient>
<linearGradient id="paint5_linear_275_303" x1="114.883" y1="28.3531" x2="114.883" y2="14.4214" gradientUnits="userSpaceOnUse">
<stop stop-color="#AE7723"/>
<stop offset="0.411458" stop-color="#FFB23C"/>
<stop offset="0.432292" stop-color="#9B681B"/>
<stop offset="1" stop-color="#4E3002"/>
</linearGradient>
<linearGradient id="paint6_linear_275_303" x1="39.0941" y1="28.9429" x2="39.0941" y2="27.7643" gradientUnits="userSpaceOnUse">
<stop stop-color="#AE7723"/>
<stop offset="0.411458" stop-color="#FFB23C"/>
<stop offset="0.432292" stop-color="#9B681B"/>
<stop offset="1" stop-color="#4E3002"/>
</linearGradient>
<linearGradient id="paint7_linear_275_303" x1="1.5807" y1="30.1429" x2="1.5807" y2="26.5643" gradientUnits="userSpaceOnUse">
<stop stop-color="#AE7723"/>
<stop offset="0.411458" stop-color="#FFB23C"/>
<stop offset="0.432292" stop-color="#9B681B"/>
<stop offset="1" stop-color="#4E3002"/>
</linearGradient>
<linearGradient id="paint8_linear_275_303" x1="60.5626" y1="28.3531" x2="60.5626" y2="14.4214" gradientUnits="userSpaceOnUse">
<stop stop-color="#AE7723"/>
<stop offset="0.411458" stop-color="#FFB23C"/>
<stop offset="0.432292" stop-color="#9B681B"/>
<stop offset="1" stop-color="#4E3002"/>
</linearGradient>
</defs>
</svg>