<svg width="76" height="196" viewBox="0 0 76 196" fill="none" xmlns="http://www.w3.org/2000/svg">
<rect x="68.0713" width="10" height="10" transform="rotate(45 68.0713 0)" fill="#E6AC26"/>
<path d="M68 101.887L70.8867 99L68 96.1133L65.1132 99L68 101.887ZM67.5 21L67.5 99L68.5 99L68.5 21L67.5 21Z" fill="#E6AC26"/>
<path d="M68 195.887L70.8867 193L68 190.113L65.1132 193L68 195.887ZM67.5 115L67.5 193L68.5 193L68.5 115L67.5 115Z" fill="#E6AC26"/>
<path d="M31.1132 7.5L34 10.3867L36.8868 7.5L34 4.61325L31.1132 7.5ZM55 7L34 7L34 8L55 8L55 7Z" fill="#E6AC26"/>
<path d="M21 7.5L0 7.5" stroke="#E6AC26"/>
</svg>