<svg width="137" height="138" viewBox="0 0 137 138" fill="none" xmlns="http://www.w3.org/2000/svg">
<path d="M23.8841 16.2849C22.4096 13.6302 20.0971 10.7849 16.9877 8.22624C15.4284 6.95424 13.6721 5.75288 11.6836 4.72754C10.6852 4.21554 9.62573 3.75286 8.49453 3.37553L7.99453 3.21556L7.21853 3.00489C6.69973 2.87822 6.17947 2.77158 5.6664 2.69825C4.6508 2.56091 3.68467 2.49024 2.6304 2.38757L2.62787 2.40756C2.5372 3.45156 2.42947 4.39288 2.36947 5.39688C2.35187 5.90755 2.3664 6.43155 2.4164 6.96088C2.4476 7.22888 2.46853 7.49021 2.5076 7.76088L2.56947 8.16088L2.61333 8.41153C2.8544 9.6302 3.23987 10.7636 3.6836 11.8262C4.58667 13.9476 5.7732 15.7702 7.0336 17.3635C9.57733 20.5422 12.4685 22.7942 15.0705 24.3009C17.6795 25.8102 20.0169 26.5462 21.6273 26.8849C23.2497 27.2182 24.156 27.2116 24.1539 27.2236C24.1967 27.1942 20.5727 26.1822 16.3383 22.4942C14.2388 20.6755 11.9809 18.2196 10.0601 15.1929C9.10853 13.6836 8.23613 12.0262 7.6112 10.2809C7.3024 9.40753 7.0508 8.50754 6.9076 7.61954L6.8852 7.47286L6.88827 7.47956C6.89093 7.48223 6.8924 7.4782 6.89347 7.4782L6.9024 7.47689C6.90547 7.47689 6.9076 7.48087 6.9076 7.48087C6.9076 7.48087 6.906 7.47686 6.906 7.47286L6.90907 7.46622L6.91173 7.46224L7.1768 7.53555C8.0836 7.81155 8.98467 8.15156 9.85907 8.54089C11.6123 9.31289 13.2633 10.2449 14.7815 11.2275C17.8117 13.2075 20.2919 15.4155 22.0659 17.5329C23.8508 19.6382 24.8804 21.6782 25.3263 23.1969C25.7831 24.7102 25.7581 25.6462 25.7789 25.6395C25.7549 25.6395 26.0659 24.7609 26.0076 23.0782C25.9571 21.4075 25.3831 18.9449 23.8841 16.2849Z" fill="#E6AC26"/>
<path d="M27.7235 27.057C25.5765 27.057 25.5765 30.3876 27.7235 30.3876C29.8708 30.3876 29.8708 27.057 27.7235 27.057Z" fill="#E6AC26"/>
<path d="M15.9689 19.509C18.9747 19.509 18.9747 14.845 15.9689 14.845C12.9641 14.845 12.9641 19.509 15.9689 19.509Z" fill="#E6AC26"/>
<path d="M40.7909 38.4942C40.7675 38.3582 40.7367 38.1676 40.7164 38.1142C40.6804 37.9502 40.6415 37.7836 40.5967 37.6183C40.5096 37.2929 40.3981 36.9742 40.2779 36.6662C40.0284 36.0516 39.7039 35.4729 39.2945 34.9836C38.8935 34.4929 38.3981 34.1089 37.8992 33.8809C36.8861 33.4169 36.0388 33.5702 35.544 33.6942C35.0352 33.8396 34.7919 33.9809 34.7893 33.9769C34.7872 33.9809 35.0763 34.0182 35.5445 34.1476C36.0065 34.2756 36.6481 34.5396 37.0847 35.0716C37.5336 35.5903 37.7935 36.3636 37.9341 37.3409C37.9695 37.5863 37.9976 37.8422 38.0185 38.1089L38.0476 38.5196C38.0565 38.6142 38.0461 38.5809 38.0419 38.5983L38.0279 38.6089C37.9909 38.6329 37.9643 38.6036 37.9633 38.6023C37.9643 38.6009 37.9836 38.6329 37.9481 38.6609C37.9992 38.6876 37.7675 38.6196 37.6524 38.5889L37.2519 38.4675C36.9909 38.3902 36.7419 38.3116 36.5081 38.2289C35.5748 37.8876 34.8976 37.4796 34.4467 36.9076C33.9899 36.3396 33.7872 35.6556 33.6721 35.1889C33.5648 34.7062 33.5336 34.4182 33.53 34.4196C33.5341 34.4222 33.3841 34.6662 33.2237 35.1662C33.0695 35.6556 32.8653 36.4489 33.1205 37.4969C33.2524 38.0142 33.5175 38.5742 33.9107 39.0782C34.3076 39.5769 34.8112 40.0236 35.3675 40.3903C35.6461 40.5783 35.9367 40.7489 36.2341 40.9009C36.3861 40.9769 36.5383 41.0542 36.6888 41.1236C36.8648 41.1996 36.9263 41.2369 37.2737 41.3716C38.4243 41.7943 39.6825 42.2183 40.9571 42.6436L41.0571 42.6743C41.0153 41.3929 41.0117 40.1729 40.8555 38.9449L40.7909 38.4942Z" fill="#E6AC26"/>
<path d="M40.0158 28.0021C39.9127 27.9527 39.7633 27.882 39.719 27.8674C39.5809 27.8047 39.4502 27.7527 39.3101 27.7061C39.0387 27.6101 38.7637 27.5221 38.4909 27.4594C37.9414 27.3301 37.3747 27.2674 36.8377 27.3167C36.297 27.3567 35.7841 27.5061 35.3767 27.7434C34.5527 28.2261 34.2418 28.8914 34.0903 29.3021C33.9357 29.7234 33.919 29.9647 33.9147 29.9634C33.9163 29.9661 34.0846 29.7808 34.4043 29.5181C34.7205 29.2688 35.2231 28.9434 35.8095 28.8981C36.3903 28.8434 37.0523 29.0448 37.807 29.4288C37.997 29.5234 38.1835 29.6328 38.3819 29.7461L38.6794 29.9288C38.7502 29.9688 38.7215 29.9594 38.7314 29.9714L38.7319 29.9861C38.7303 30.0247 38.6966 30.0274 38.6966 30.0274C38.6966 30.0274 38.7262 30.0274 38.7294 30.0674C38.7778 30.0447 38.6153 30.1754 38.5382 30.2381L38.2581 30.4607C38.0731 30.6007 37.8929 30.7381 37.7226 30.8541C37.0247 31.3448 36.4043 31.6167 35.7857 31.6474C35.1669 31.6821 34.5918 31.4954 34.2049 31.3394C33.8179 31.1781 33.6002 31.0594 33.5991 31.0634C33.6023 31.0607 33.6975 31.2861 33.9653 31.6434C34.2341 31.9914 34.6887 32.5234 35.5439 32.8594C35.9633 33.0274 36.4841 33.1154 37.0289 33.0887C37.5747 33.0634 38.1351 32.9314 38.6679 32.7221C38.9341 32.6207 39.195 32.4967 39.4502 32.3687C39.5751 32.2981 39.7033 32.2314 39.8251 32.1607C39.969 32.0794 40.0251 32.0527 40.2882 31.8727C41.1523 31.2807 42.0622 30.6087 42.995 29.9301L43.0622 29.8794C42.1491 29.2754 41.2966 28.6714 40.3617 28.1807L40.0158 28.0021Z" fill="#E6AC26"/>
<path d="M31.367 35.3183C31.0253 35.0397 30.8118 34.9383 30.8143 34.9357C30.8097 34.937 30.9217 35.157 31.0749 35.5463C31.2238 35.9317 31.3977 36.5117 31.3597 37.133C31.3263 37.7477 31.0643 38.3584 30.593 39.0317C30.4785 39.2024 30.3467 39.3797 30.2129 39.5517L29.9982 39.8237C29.9389 39.905 29.8175 40.0597 29.8405 40.0157C29.7962 40.0117 29.7962 39.981 29.7962 39.981C29.7962 39.9823 29.7919 40.0157 29.7566 40.0157L29.741 40.0143C29.7315 40.005 29.7399 40.033 29.7009 39.961L29.529 39.6597C29.4211 39.4584 29.3227 39.261 29.2269 39.0756C28.8643 38.3116 28.6769 37.6383 28.7394 37.061C28.7853 36.4783 29.0915 35.9943 29.3389 35.6823C29.591 35.3703 29.7638 35.2156 29.7607 35.2143C29.7629 35.2183 29.5337 35.2277 29.1274 35.361C28.7399 35.5063 28.0971 35.7943 27.6358 36.5997C27.4082 36.9917 27.2545 37.497 27.2143 38.0357C27.1701 38.5717 27.2217 39.1357 27.3482 39.6904C27.4082 39.9677 27.4821 40.2437 27.5779 40.5183C27.6249 40.653 27.6733 40.7917 27.7238 40.9237C27.7399 40.969 27.805 41.1197 27.8539 41.225L28.0211 41.581C28.4915 42.5237 29.0591 43.3917 29.631 44.321L29.6801 44.257C30.3337 43.3543 30.9821 42.469 31.5519 41.6277C31.7217 41.3717 31.7451 41.3157 31.8295 41.1757C31.8971 41.057 31.9613 40.9303 32.0238 40.8077C32.1545 40.5583 32.2681 40.3023 32.3717 40.0396C32.567 39.5156 32.7039 38.961 32.7321 38.4196C32.7607 37.877 32.679 37.3544 32.5206 36.9317C32.2025 36.0677 31.6971 35.5983 31.367 35.3183Z" fill="#E6AC26"/>
<path d="M51.1153 11.6915L50.7606 11.3475L50.4679 11.0728C49.3975 10.1061 48.2767 9.2728 47.1393 8.5888C44.869 7.2048 42.5232 6.43816 40.5336 6.21816C38.5341 5.9875 36.9393 6.2675 35.9096 6.55683C34.88 6.84883 34.3663 7.1355 34.3633 7.1235C34.3622 7.1355 34.9508 7.10883 35.9664 7.2235C36.982 7.33017 38.418 7.60617 40.0054 8.29551C41.5966 8.96884 43.3205 10.0621 45.0185 11.5475C45.869 12.2901 46.7158 13.1274 47.547 14.0368C47.6169 14.1114 47.6112 14.1115 47.6085 14.1141L47.6081 14.1301C47.6065 14.1448 47.6043 14.1541 47.6018 14.1608C47.5966 14.1755 47.5898 14.1848 47.5809 14.1902C47.5628 14.2022 47.5418 14.1968 47.5319 14.1941L47.5267 14.1928C47.5267 14.1928 47.5404 14.1995 47.5424 14.2155C47.544 14.2235 47.5423 14.2342 47.5357 14.2462C47.5762 14.2568 47.107 14.2901 46.8414 14.3061C45.6303 14.3768 44.4685 14.3328 43.3903 14.1674C41.2278 13.8368 39.42 12.9475 38.0694 11.8262C36.7112 10.7115 35.8117 9.45945 35.2294 8.57012C34.6513 7.66478 34.369 7.11817 34.3633 7.1235C34.3705 7.12217 34.3804 7.73551 34.5918 8.82884C34.8101 9.90484 35.2357 11.5248 36.42 13.2941C37.5742 15.0568 39.6918 16.8755 42.4694 17.7728C43.8456 18.2341 45.3434 18.4875 46.8841 18.5301C47.3081 18.5395 47.5371 18.5502 48.2737 18.5102C48.9674 18.4702 49.6565 18.3928 50.3351 18.2795C51.0043 18.1715 51.6658 18.0301 52.2747 17.8608L54.0486 17.3168L55.2554 16.9395C54.5153 15.8861 53.8622 14.9115 53.0857 13.8968C52.6814 13.3915 52.2533 12.8901 51.8018 12.4021C51.5742 12.1595 51.344 11.9261 51.1153 11.6915Z" fill="#E6AC26"/>
<path d="M40.6839 12.5464C42.7844 12.093 42.085 8.84237 39.9902 9.2877C37.8896 9.7397 38.5891 12.9917 40.6839 12.5464Z" fill="#E6AC26"/>
<path d="M58.3255 6.63296C56.1845 6.63296 56.1845 9.96362 58.3255 9.96362C60.4719 9.96362 60.4719 6.63296 58.3255 6.63296Z" fill="#E6AC26"/>
<path d="M63.7081 20.3423C66.707 20.3423 66.707 15.6783 63.7081 15.6783C60.7028 15.6783 60.7028 20.3423 63.7081 20.3423Z" fill="#E6AC26"/>
<path d="M73.1949 14.2849C73.2225 14.2876 72.998 11.6062 72.6236 10.3329C71.9116 8.28755 70.958 6.13288 69.6023 4.50488C69.058 3.91822 68.4684 3.39818 67.8324 2.97018C66.2527 1.87152 64.4641 1.36488 62.8632 1.29421C61.2527 1.21554 59.7887 1.46621 58.5256 1.96088C57.2709 2.45421 56.2689 3.22623 55.5876 4.05423C54.2027 5.7649 54.0731 7.4969 54.0991 8.51823C54.1469 9.57957 54.3308 10.0916 54.3168 10.0929C54.3308 10.0942 54.2136 9.5422 54.2887 8.48353C54.3803 7.46087 54.7417 5.80358 56.1969 4.43158C57.6089 3.05691 60.1584 2.30622 62.9605 2.80222C64.3397 3.05155 65.7313 3.66623 66.8881 4.7209C67.0928 4.9009 67.2747 5.10886 67.4636 5.31686C67.4433 5.32353 70.4548 8.89687 70.0933 13.8249C70.0887 13.9142 70.5105 17.3462 67.9684 19.6995C66.0704 21.4609 62.9532 25.6476 51.7417 25.3849C51.6007 25.1609 51.4589 24.9382 51.2965 24.7209C51.1657 24.5462 51.0184 24.3635 50.8693 24.1915C50.7413 24.0555 50.6303 23.9369 50.5064 23.8142C50.8116 23.8062 51.1163 23.7915 51.4163 23.7635C52.8756 23.6155 54.1376 23.1355 55.2652 22.4995C56.3829 21.8609 57.3465 21.0329 58.01 20.0609C58.6965 19.1022 58.9747 17.8942 58.8689 17.1275C58.7851 16.3635 58.5699 16.0595 58.5845 16.0529C58.5741 16.0449 58.6173 16.4716 58.4632 17.0436C58.3048 17.6169 57.7709 18.0462 57.1793 18.5982C55.7184 19.9662 53.0731 20.8822 49.0845 20.9635L44.6293 20.6302C44.4231 20.5915 44.2152 20.5515 44.0184 20.5275C42.2887 20.3302 39.51 19.9182 39.5157 19.9076C39.5157 19.9142 42.2887 21.2422 43.7356 22.2635C44.7132 22.9502 45.9209 23.8662 47.1741 24.9489C45.1163 24.5382 43.1277 23.8049 41.2417 22.8422C40.0627 22.2315 38.6043 21.8409 37.396 21.1502C41.2808 24.3369 45.5053 26.3275 49.6433 27.3329C49.8095 27.5262 49.9709 27.7395 50.1247 27.9609C50.4731 28.4609 50.7908 28.9889 51.0647 29.5062C51.6121 30.5609 51.9725 31.5929 52.046 32.4635C52.1356 33.3355 51.8923 34.0876 51.6303 34.5516C51.3736 35.0236 51.1627 35.2475 51.1684 35.2529C51.1657 35.2422 51.4319 35.2489 51.886 35.0129C52.3293 34.7916 53.0433 34.1622 53.3507 32.8102C53.6564 31.4836 53.4975 29.7916 53.0069 28.2049C52.9783 28.1062 52.9444 28.0142 52.9141 27.9209C53.5329 27.9942 54.1491 28.0489 54.7652 28.0796C70.1371 28.8636 73.1865 16.6449 73.1949 14.2849Z" fill="#E6AC26"/>
<path d="M87.8663 7.1155C92.071 8.2555 96.986 8.78082 102.028 8.20215C102.624 8.13948 103.205 8.06215 103.78 7.97149C103.363 8.24749 102.921 8.51551 102.411 8.75684C101.082 9.39684 99.4371 9.86883 97.5418 10.1128C93.7652 10.5995 88.9783 10.2181 83.7914 8.73015C82.4876 8.36348 81.245 7.88483 79.8007 7.34883C78.3767 6.83016 76.8851 6.3275 75.2918 5.8875C73.8975 5.52084 72.4475 5.17413 70.7955 5.0448C71.634 6.35146 72.3226 7.72481 72.8356 9.15814C73.4247 9.23814 74.0158 9.3328 74.5961 9.45013C76.1002 9.74747 77.5636 10.1182 78.9876 10.5155C80.3876 10.9128 81.9184 11.3355 83.3308 11.5915C89.0319 12.6661 94.0731 12.5182 98.0122 11.5382C99.9783 11.0435 101.658 10.3261 102.965 9.47279C103.808 8.92879 104.473 8.34081 105.016 7.76348C108.894 7.06081 112.458 5.93949 115.704 5.07416C117.748 4.52749 119.685 4.08881 121.514 3.83015C123.349 3.56481 125.073 3.48351 126.646 3.55684C129.809 3.68751 132.338 4.37413 134.05 4.91146C135.764 5.45946 136.686 5.86083 136.688 5.8515C136.684 5.8595 135.836 5.3235 134.185 4.54883C132.537 3.7995 130.053 2.79281 126.761 2.33015C125.12 2.10881 123.288 2.02751 121.341 2.16218C119.397 2.28484 117.34 2.61548 115.231 3.06348C112.54 3.63015 109.753 4.36347 106.859 4.9528C106.873 4.9208 106.885 4.88483 106.899 4.8515C106.845 4.86883 106.783 4.87951 106.729 4.89551C106.711 4.92884 106.696 4.95684 106.677 4.9875C105.072 5.30884 103.439 5.58879 101.768 5.77012C96.9975 6.31145 92.4262 5.97145 88.3408 5.10345C84.2423 4.24745 80.5699 3.03548 77.3726 2.33282C74.1866 1.60348 71.5179 1.39418 69.7023 1.42618C67.8756 1.45551 66.8898 1.63014 66.8892 1.61947C66.8674 1.66214 70.9803 1.45417 77.0496 3.52084C80.0966 4.49017 83.6475 5.99016 87.8663 7.1155Z" fill="#E6AC26"/>
<path d="M90.0064 13.8744C89.3523 14.2117 88.4736 14.4584 87.4111 14.5104C86.3491 14.5651 85.1174 14.4424 83.7414 14.1664C80.9704 13.6384 77.719 12.4357 73.6376 11.4197C73.6043 11.4117 73.5694 11.4064 73.5356 11.3971C73.6491 11.8544 73.7423 12.325 73.8111 12.8064C73.8127 12.8157 73.8174 12.8224 73.8179 12.8304C73.8226 12.8691 73.8204 12.9064 73.8247 12.9437C73.8788 13.4024 73.9111 13.8691 73.9111 14.3411C73.9111 14.3544 73.9054 14.3637 73.9038 14.3757C77.6012 14.881 80.9147 15.5651 83.7075 15.6598C85.1788 15.7198 86.5127 15.6424 87.6376 15.3811C88.7632 15.1277 89.6595 14.6771 90.2731 14.2051C90.896 13.7237 91.247 13.2451 91.459 12.9238C91.6642 12.5998 91.748 12.4184 91.7518 12.4197C91.7491 12.4171 91.6256 12.5851 91.358 12.8691C91.0903 13.1464 90.6616 13.5371 90.0064 13.8744Z" fill="#E6AC26"/>
<path d="M62.3845 13.2756C61.8121 13.9543 61.3871 14.6969 61.0693 15.4609C61.5647 14.5316 62.4939 13.8436 63.8699 13.8436C64.9709 13.8436 65.7871 14.2849 66.3241 14.9356C66.6371 14.7263 67.0012 14.5516 67.4293 14.4236C67.9871 14.249 68.6111 14.1609 69.2532 14.1116C69.5417 12.5476 68.9403 10.529 68.9403 10.529C67.134 10.985 63.4777 11.9663 62.3845 13.2756Z" fill="#E6AC26"/>
<path d="M66.4575 5.78107C65.746 6.20774 65.1663 6.87044 64.8469 7.65177C64.6799 8.04644 64.5903 8.46645 64.5491 8.89845C64.498 9.33845 64.5132 10.1584 63.708 10.9158L68.8491 9.45041C68.8324 9.33441 67.5917 6.51843 66.7023 5.63843C66.6189 5.68243 66.5387 5.72907 66.4575 5.78107Z" fill="#E6AC26"/>
<path d="M80.284 25.3582C80.2684 25.3595 80.2975 25.3702 80.2152 25.3608L79.8569 25.3209C79.6241 25.2942 79.408 25.2649 79.1928 25.2315C78.3413 25.0889 77.6715 24.8435 77.234 24.4382C76.7788 24.0449 76.5647 23.4755 76.4611 23.0689C76.36 22.6609 76.3387 22.4075 76.3356 22.4088C76.3397 22.4115 76.2027 22.6209 76.0709 23.0569C75.9449 23.4875 75.7975 24.2275 76.1736 25.1262C76.3632 25.5622 76.6865 26.0049 77.1001 26.3649C77.5189 26.7342 78.0184 27.0328 78.5507 27.2608C78.8168 27.3795 79.0928 27.4769 79.3751 27.5622C79.5127 27.6102 79.6589 27.6488 79.7996 27.6835C79.846 27.6982 80.0121 27.7289 80.1272 27.7515L80.5231 27.8182C81.5835 27.9862 82.6475 28.0155 83.7668 28.0795L83.7423 27.9968C83.4007 26.8702 83.0647 25.7635 82.7141 24.7475C82.61 24.4395 82.5793 24.3849 82.5168 24.2355C82.4589 24.0969 82.3949 23.9662 82.3313 23.8315C82.2075 23.5662 82.0636 23.3089 81.9116 23.0595C81.5969 22.5715 81.2241 22.1142 80.7965 21.7595C80.3652 21.3982 79.8824 21.1595 79.4392 21.0315C78.534 20.7849 77.8351 20.9475 77.3991 21.0635C76.9632 21.1995 76.7469 21.3195 76.7449 21.3142C76.7439 21.3182 76.9949 21.3515 77.4132 21.4635C77.8199 21.5688 78.4064 21.7675 78.8923 22.1728C79.3829 22.5835 79.7247 23.1848 79.9965 24.0115C80.0627 24.2155 80.1256 24.4315 80.1871 24.6608L80.284 25.0129C80.31 25.1169 80.3636 25.3155 80.3408 25.2715C80.3147 25.2995 80.2887 25.2822 80.2887 25.2822C80.2908 25.2835 80.3147 25.3062 80.2944 25.3462L80.284 25.3582Z" fill="#E6AC26"/>
<path d="M72.4579 21.965C72.6938 21.693 72.8547 21.5516 72.8522 21.5516C72.8527 21.5556 72.6433 21.5649 72.2694 21.6849C71.9137 21.8143 71.3251 22.0716 70.8834 22.7756C70.6667 23.1276 70.5241 23.5676 70.4766 24.0409C70.4287 24.5129 70.4646 25.0023 70.5641 25.4889C70.6137 25.7316 70.6787 25.9756 70.7621 26.2156C70.8001 26.3329 70.8418 26.4503 70.8865 26.5716C70.8995 26.6103 70.9585 26.7423 71.0037 26.8356L71.1479 27.1422C71.5599 27.9689 72.0585 28.7263 72.5646 29.5383L72.6105 29.4756C73.2318 28.6809 73.835 27.9049 74.3709 27.1609C74.5307 26.9343 74.5527 26.8849 74.6345 26.7689C74.6974 26.6569 74.7585 26.5516 74.8178 26.4383C74.9422 26.2236 75.0501 25.9969 75.1438 25.7663C75.3381 25.3049 75.4735 24.8222 75.5079 24.3449C75.5443 23.8689 75.4798 23.4156 75.3418 23.0383C75.0657 22.2876 74.6178 21.8769 74.3141 21.6329C74.0069 21.3903 73.8198 21.3036 73.8209 21.2996C73.8178 21.3023 73.9151 21.4943 74.0459 21.8356C74.1725 22.1729 74.3246 22.6823 74.2755 23.2236C74.2345 23.7636 73.9829 24.301 73.5449 24.8956C73.4318 25.0423 73.3146 25.197 73.1823 25.357L72.9875 25.5903C72.9293 25.6636 72.8131 25.797 72.8334 25.7596C72.8001 25.757 72.799 25.729 72.799 25.729C72.8001 25.7303 72.7949 25.7596 72.7626 25.7609L72.7485 25.7596C72.7402 25.7503 72.747 25.7756 72.7131 25.7129L72.5605 25.4489C72.4662 25.2729 72.3803 25.1062 72.2959 24.9369C71.9766 24.2729 71.8235 23.6889 71.8845 23.1809C71.9361 22.6689 72.2251 22.2343 72.4579 21.965Z" fill="#E6AC26"/>
<path d="M85.4677 18.1423C84.6666 17.6196 83.9286 17.1023 83.1145 16.6756L82.8125 16.5183C82.7161 16.4756 82.5911 16.4156 82.5521 16.3996C82.4317 16.3463 82.3171 16.301 82.2005 16.2583C81.963 16.1743 81.7234 16.0983 81.4811 16.0356C80.9994 15.9183 80.513 15.861 80.0426 15.8877C79.5713 15.9116 79.1327 16.0276 78.7802 16.2196C78.0702 16.6036 77.8026 17.1556 77.6671 17.4943C77.5421 17.8476 77.5286 18.0436 77.5254 18.0436C77.5265 18.0463 77.665 17.897 77.9421 17.685C78.2161 17.4743 78.653 17.221 79.1635 17.1903C79.6693 17.1543 80.2478 17.333 80.9026 17.669C81.0677 17.7503 81.2317 17.8476 81.4057 17.9463L81.665 18.105C81.7265 18.1396 81.7026 18.1316 81.7114 18.141L81.7125 18.1543C81.7103 18.185 81.6806 18.1876 81.6797 18.1876C81.6797 18.1876 81.7073 18.1876 81.7103 18.221C81.7478 18.205 81.6119 18.305 81.5385 18.361L81.2963 18.5369C81.1411 18.6569 80.9849 18.7623 80.8379 18.8583C80.239 19.2556 79.7005 19.473 79.1598 19.4876C78.6229 19.5063 78.1193 19.3356 77.7859 19.2023C77.4489 19.0583 77.2578 18.9557 77.2578 18.9597C77.2598 18.9583 77.3442 19.1409 77.5802 19.4476C77.8161 19.7476 78.2109 20.1956 78.9583 20.4943C79.3245 20.6423 79.7791 20.7263 80.2546 20.713C80.7234 20.7023 81.2103 20.5996 81.6739 20.4343C81.9057 20.3543 82.1254 20.2556 82.3473 20.1529C82.4614 20.1023 82.5677 20.0476 82.6723 19.985C82.7973 19.9196 82.8463 19.8997 83.0745 19.757C83.8171 19.277 84.6067 18.7356 85.4087 18.1823L85.4677 18.1423Z" fill="#E6AC26"/>
<path d="M74.9626 20.6196C77.1022 20.6196 77.1022 17.289 74.9626 17.289C72.8146 17.289 72.8146 20.6196 74.9626 20.6196Z" fill="#E6AC26"/>
<path d="M15.8736 2.15425C17.8903 2.37692 20.2236 2.98223 22.4674 4.25822C23.4939 4.83289 24.4908 5.55422 25.4434 6.39156C26.1944 7.04889 26.9064 7.78622 27.5835 8.59156C27.9294 9.00356 28.2674 9.43291 28.5882 9.87958C29.4575 11.0969 30.1923 12.3689 30.7747 13.6543C31.3564 14.9236 31.7756 16.2383 32.107 17.5316C32.7564 20.1089 32.995 22.5382 32.9236 24.5702C32.8491 26.6049 32.447 28.2396 32.021 29.3276C31.6084 30.4196 31.2242 30.9715 31.2387 30.9782C31.2256 30.9689 31.7502 30.5542 32.4554 29.5582C33.1554 28.5662 33.9866 26.9435 34.4694 24.7755C34.9559 22.6155 35.1095 19.9383 34.695 17.0236C34.4814 15.5729 34.1346 14.0302 33.5356 12.4969C32.9434 10.9689 32.1414 9.46893 31.1288 8.05959C31.0496 7.94226 30.9636 7.8409 30.8772 7.7329C30.2387 6.8729 29.5371 6.07692 28.7866 5.35425C27.2106 3.84892 25.4418 2.66623 23.6308 1.89156C20.8486 0.671558 18.095 0.42622 15.8991 0.58622C13.6876 0.751553 11.995 1.27554 10.8647 1.67287C9.73458 2.08354 9.14804 2.39292 9.14551 2.38759C9.14604 2.39292 9.79858 2.27159 10.971 2.15158C12.1408 2.03692 13.8434 1.92492 15.8736 2.15425Z" fill="#E6AC26"/>
<path d="M31.7335 7.02097C33.1382 6.5223 34.5147 5.91297 35.8892 5.2543C36.5799 4.92364 37.2466 4.58226 37.8991 4.24493C38.2496 4.06893 38.5158 3.92494 38.8038 3.79428C39.0903 3.65694 39.3819 3.54094 39.6747 3.42761C40.8486 2.99161 42.0616 2.74226 43.234 2.6476C45.5918 2.46493 47.7684 2.93426 49.3715 3.77292C50.997 4.60359 52.022 5.80761 52.5611 6.73295C53.1064 7.66628 53.2595 8.28893 53.272 8.28093C53.2564 8.2836 53.3043 7.65296 53.007 6.54096C52.7152 5.44496 51.9371 3.82629 50.2346 2.47162C48.5674 1.11695 46.071 0.106258 43.1966 0.00892448C41.7647 -0.0417414 40.2444 0.120935 38.7236 0.586268C38.3466 0.703602 37.9694 0.835607 37.5908 0.991607C37.2184 1.13961 36.836 1.32759 36.5204 1.47292L34.5319 2.43425C33.1986 3.07558 31.9023 3.69964 30.6611 4.22631C30.2127 4.41964 29.7684 4.58627 29.3335 4.75027C30.0799 5.4716 30.7851 6.2623 31.4242 7.12097C31.5308 7.08764 31.633 7.05697 31.7335 7.02097Z" fill="#E6AC26"/>
<path d="M24.6639 6.62095L23.8791 6.83026C23.3504 6.97159 22.8301 7.05293 22.3097 7.09693C21.2707 7.19026 20.2739 7.09426 19.3905 6.89426C17.6092 6.48759 16.3072 5.59827 15.5577 4.83827C14.7963 4.07827 14.5139 3.50091 14.5029 3.51425C14.5187 3.50758 14.5968 4.13293 15.1665 5.1356C15.7291 6.1276 16.9045 7.4849 18.8769 8.37023C19.8567 8.81023 21.0119 9.1436 22.2977 9.23827C22.9368 9.28627 23.6087 9.28093 24.3015 9.20227C24.9681 9.11693 25.5644 9.03025 26.2463 8.91958C26.4239 8.89158 26.6144 8.85295 26.8029 8.81561C26.1269 8.01561 25.4144 7.27828 24.6639 6.62095Z" fill="#E6AC26"/>
<path d="M11.9007 52.1662L11.5466 51.8249L11.2636 51.5382C10.283 50.4875 9.4251 49.3849 8.7111 48.2609C7.2783 46.0182 6.4611 43.6875 6.19857 41.7022C5.92417 39.7062 6.16844 38.1035 6.4351 37.0675C6.70484 36.0302 6.9767 35.5102 6.96737 35.5075C6.9767 35.5062 6.96417 36.0955 7.0955 37.1142C7.23137 38.1235 7.53817 39.5542 8.2595 41.1289C8.96937 42.7062 10.0986 44.4062 11.6247 46.0729C12.3788 46.9089 13.234 47.7355 14.1684 48.5435C14.2444 48.6169 14.2428 48.6115 14.2466 48.6089H14.2616C14.271 48.6062 14.2799 48.6049 14.2866 48.6022C14.3007 48.5969 14.3095 48.5875 14.3147 48.5809C14.3251 48.5555 14.321 48.5355 14.3179 48.5249L14.3158 48.5195C14.3158 48.5195 14.3231 48.5315 14.3387 48.5355C14.3466 48.5355 14.357 48.5342 14.369 48.5262C14.3808 48.5702 14.4043 48.1049 14.4184 47.8382C14.4652 46.6235 14.3892 45.4555 14.1996 44.3875C13.8226 42.2289 12.896 40.4342 11.746 39.1129C10.6018 37.7782 9.3247 36.9062 8.4247 36.3422C7.5147 35.7835 6.9627 35.5129 6.96737 35.5075C6.9663 35.5142 7.57097 35.5115 8.66937 35.6969C9.75484 35.8929 11.3819 36.2836 13.1731 37.4316C14.9554 38.5462 16.8242 40.6195 17.7856 43.3795C18.271 44.7462 18.558 46.2395 18.6414 47.7862C18.659 48.2049 18.6751 48.4342 18.6523 49.1782C18.6256 49.8675 18.5575 50.5649 18.4658 51.2395C18.3736 51.9129 18.2444 52.5782 18.0908 53.1902L17.586 54.9782L17.2376 56.2009C16.1679 55.4755 15.1783 54.8502 14.1491 54.0889C13.6351 53.7022 13.1242 53.2782 12.6278 52.8422C12.3799 52.6195 12.136 52.3955 11.9007 52.1662Z" fill="#E6AC26"/>
<path d="M12.5213 41.7128C12.1155 43.8248 8.85262 43.1968 9.25208 41.0902C9.65302 38.9782 12.9202 39.6008 12.5213 41.7128Z" fill="#E6AC26"/>
<path d="M7.01027 59.5049C6.96293 57.3542 10.2895 57.2822 10.3363 59.4249C10.3832 61.5742 7.0572 61.6475 7.01027 59.5049Z" fill="#E6AC26"/>
<path d="M20.8194 64.5782C20.8918 67.5795 16.2328 67.6875 16.1672 64.6809C16.099 61.6729 20.7531 61.5702 20.8194 64.5782Z" fill="#E6AC26"/>
<path d="M14.991 74.2116C14.993 74.2316 12.3102 74.073 11.0238 73.7263C8.96644 73.0596 6.79244 72.157 5.1383 70.8303C4.54044 70.2996 4.0071 69.721 3.5659 69.0996C2.4347 67.5356 1.8899 65.765 1.7779 64.157C1.6695 62.5476 1.88724 61.0756 2.34817 59.8076C2.8123 58.5356 3.56177 57.5156 4.3779 56.8143C6.05137 55.3916 7.77844 55.2236 8.79977 55.2276C9.86017 55.2516 10.3758 55.425 10.3774 55.409C10.3795 55.4236 9.82577 55.3196 8.76804 55.4183C7.7503 55.5316 6.1019 55.9303 4.76484 57.4169C3.42164 58.8596 2.73577 61.4276 3.2919 64.221C3.5711 65.5956 4.21377 66.9743 5.29244 68.1103C5.4815 68.3103 5.69044 68.4943 5.90284 68.673C5.90817 68.653 9.5435 71.5876 14.4634 71.1169C14.5467 71.1116 17.9842 71.4516 20.2768 68.8556C21.994 66.9183 26.1014 63.7076 25.5867 52.489C25.3664 52.3556 25.141 52.2196 24.9211 52.061C24.7367 51.9316 24.5571 51.7916 24.381 51.6396C24.244 51.5196 24.1191 51.4116 23.9982 51.2903C23.9967 51.5916 23.9878 51.8943 23.968 52.1956C23.8514 53.6663 23.4003 54.9396 22.7883 56.081C22.1768 57.2143 21.37 58.197 20.4138 58.8823C19.4784 59.5903 18.27 59.8943 17.5086 59.8116C16.743 59.7383 16.4358 59.5369 16.4304 59.5516C16.4222 59.5409 16.843 59.5756 17.4096 59.401C17.9795 59.237 18.4024 58.6943 18.9415 58.0849C20.2675 56.5903 21.1191 53.9236 21.1118 49.9303L20.6826 45.4783C20.6399 45.273 20.6019 45.065 20.5691 44.8703C20.331 43.1423 19.8591 40.3703 19.8482 40.377C19.8566 40.377 21.2415 43.1223 22.2946 44.5476C23.0014 45.5116 23.9487 46.6996 25.0544 47.9263C24.5962 45.881 23.8191 43.9063 22.8123 42.0396C22.1815 40.873 21.7586 39.4223 21.0362 38.2276C24.3112 42.0463 26.393 46.2236 27.4862 50.349C27.6899 50.505 27.9076 50.6636 28.1248 50.8169C28.6304 51.1556 29.1659 51.461 29.6956 51.725C30.7596 52.249 31.7992 52.581 32.6691 52.6356C33.5435 52.705 34.2836 52.445 34.7462 52.173C35.2112 51.901 35.4315 51.689 35.4367 51.6956C35.4263 51.693 35.4388 51.9583 35.2123 52.4196C35.0019 52.8663 34.3883 53.5943 33.0446 53.933C31.7258 54.269 30.0331 54.1476 28.4378 53.697C28.3383 53.6703 28.2462 53.6383 28.1528 53.605C28.2388 54.2276 28.3076 54.8423 28.3514 55.453C29.4779 70.8183 17.3482 74.1516 14.991 74.2116Z" fill="#E6AC26"/>
<path d="M8.15825 89.0517C9.39358 93.2343 10.0269 98.1477 9.56131 103.208C9.51185 103.797 9.44718 104.381 9.36865 104.958C9.63478 104.536 9.89251 104.086 10.1228 103.57C10.7264 102.228 11.1686 100.572 11.3701 98.669C11.767 94.8783 11.278 90.097 9.68158 84.9383C9.28051 83.641 8.77491 82.4077 8.20825 80.9743C7.65865 79.561 7.11865 78.0797 6.65038 76.4943C6.24625 75.1063 5.87278 73.6637 5.70345 72.0117C7.02638 72.8223 8.41345 73.485 9.85505 73.9637C9.95558 74.5517 10.0638 75.141 10.1873 75.721C10.5228 77.2183 10.9264 78.6743 11.3534 80.0917C11.7805 81.4837 12.24 83.0037 12.529 84.4143C13.7269 90.097 13.6916 95.145 12.805 99.1077C12.3534 101.086 11.6733 102.782 10.8514 104.11C10.3258 104.964 9.75291 105.642 9.18785 106.2C8.57851 110.096 7.53625 113.688 6.74305 116.961C6.24251 119.012 5.84571 120.961 5.62691 122.805C5.40345 124.64 5.36545 126.365 5.47331 127.945C5.67531 131.101 6.41491 133.618 6.98945 135.318C7.57638 137.024 8.00251 137.942 7.99411 137.945C8.00038 137.941 7.44678 137.104 6.63731 135.469C5.84518 133.836 4.78625 131.364 4.25251 128.086C3.98731 126.45 3.87278 124.617 3.95865 122.668C4.03891 120.716 4.32331 118.653 4.72491 116.526C5.23211 113.826 5.89718 111.021 6.42171 108.106C6.39051 108.12 6.35971 108.133 6.32798 108.148C6.34358 108.093 6.35345 108.038 6.36491 107.984C6.39465 107.965 6.42171 107.949 6.45198 107.929C6.73785 106.316 6.98158 104.672 7.12011 102.993C7.55718 98.213 7.11705 93.6423 6.15918 89.569C5.21545 85.4877 3.91705 81.8383 3.14571 78.661C2.34105 75.489 2.07331 72.821 2.06491 71.005C2.05505 69.1757 2.20718 68.185 2.19571 68.185C2.23891 68.157 2.12745 72.277 4.31758 78.3117C5.35971 81.341 6.94158 84.8543 8.15825 89.0517Z" fill="#E6AC26"/>
<path d="M14.9496 91.0396C15.2783 90.3822 15.4991 89.4969 15.5283 88.4342C15.5652 87.3702 15.4089 86.1396 15.1037 84.7689C14.5136 82.0076 13.2428 78.7729 12.1319 74.7182C12.1241 74.6849 12.1163 74.6489 12.1084 74.6156C12.5725 74.7182 13.0455 74.8022 13.5209 74.8542C13.5303 74.8569 13.5365 74.8609 13.546 74.8609C13.5903 74.8649 13.6272 74.8609 13.6641 74.8649C14.1168 74.9142 14.5835 74.9369 15.0621 74.9262C15.0751 74.9262 15.0851 74.9209 15.0965 74.9182C15.6813 78.6089 16.4376 81.9089 16.5933 84.7022C16.6928 86.1729 16.6381 87.5102 16.408 88.6409C16.1793 89.7729 15.7491 90.6796 15.2908 91.3049C14.8231 91.9329 14.3543 92.3009 14.0381 92.5156C13.7189 92.7316 13.5387 92.8195 13.5403 92.8222C13.5387 92.8209 13.7037 92.6942 13.9793 92.4195C14.2523 92.1449 14.6329 91.7076 14.9496 91.0396Z" fill="#E6AC26"/>
<path d="M13.7401 63.4142C14.3984 62.8209 15.1344 62.3849 15.8927 62.0515C14.9719 62.5622 14.3084 63.5129 14.3385 64.8902C14.3636 65.9902 14.8224 66.7969 15.4823 67.3142C15.2812 67.6382 15.1156 68.0075 14.9973 68.4315C14.8349 68.9942 14.7604 69.6275 14.7323 70.2715C13.1693 70.5929 11.1401 70.0369 11.1401 70.0369C11.5552 68.2182 12.45 64.5382 13.7401 63.4142Z" fill="#E6AC26"/>
<path d="M6.34339 67.6609C6.75272 66.9329 7.39699 66.3396 8.17619 66.0023C8.56685 65.8263 8.98352 65.7276 9.41418 65.6769C9.85325 65.6169 10.6721 65.6142 11.4117 64.7836L10.0611 69.9689C9.95019 69.9543 7.10379 68.7809 6.20752 67.9089C6.24805 67.8196 6.29392 67.7383 6.34339 67.6609Z" fill="#E6AC26"/>
<path d="M26.2058 81.0568C26.2074 81.0354 26.2183 81.0701 26.2074 80.9808L26.1579 80.6301C26.1282 80.3968 26.0938 80.1754 26.0542 79.9674C25.8902 79.1181 25.6344 78.4528 25.2194 78.0248C24.8172 77.5781 24.2443 77.3728 23.835 77.2808C23.4266 77.1901 23.1724 77.1728 23.174 77.1688C23.1755 77.1728 23.3803 77.0328 23.8156 76.8914C24.2427 76.7554 24.9719 76.5914 25.8771 76.9488C26.323 77.1248 26.7719 77.4421 27.1427 77.8474C27.5162 78.2594 27.8224 78.7461 28.0678 79.2728C28.1922 79.5381 28.297 79.8114 28.3864 80.0928C28.438 80.2354 28.4798 80.3741 28.5178 80.5208C28.5339 80.5661 28.5672 80.7261 28.5932 80.8474L28.6667 81.2354C28.8588 82.2994 28.912 83.3634 29.0068 84.4821L28.9172 84.4608C27.7844 84.1421 26.6724 83.8248 25.6558 83.5021C25.3464 83.4061 25.2839 83.3754 25.1334 83.3168C24.9932 83.2554 24.8626 83.1994 24.7251 83.1394C24.4588 83.0208 24.1979 82.8821 23.9531 82.7354C23.4506 82.4301 22.986 82.0688 22.624 81.6488C22.2552 81.2234 22.0031 80.7474 21.8672 80.3061C21.5995 79.4048 21.7454 78.7021 21.8536 78.2701C21.9766 77.8248 22.0943 77.6061 22.0902 77.6034C22.0938 77.6021 22.1328 77.8541 22.2474 78.2701C22.3672 78.6741 22.5798 79.2554 22.9948 79.7341C23.4146 80.2154 24.0235 80.5448 24.8547 80.7981C25.062 80.8594 25.2766 80.9181 25.5084 80.9741L25.8604 81.0648C25.9662 81.0874 26.1667 81.1368 26.1198 81.1154C26.1484 81.0888 26.1303 81.0634 26.1303 81.0634C26.1312 81.0648 26.1547 81.0888 26.1932 81.0674L26.2058 81.0568Z" fill="#E6AC26"/>
<path d="M22.6452 73.2982C22.3753 73.5408 22.2359 73.7048 22.2348 73.7022C22.2379 73.7035 22.2425 73.4969 22.3603 73.1155C22.4759 72.7555 22.7196 72.1622 23.4201 71.7048C23.7608 71.4808 24.1968 71.3275 24.6687 71.2715C25.1384 71.2048 25.6343 71.2302 26.1171 71.3262C26.3603 71.3702 26.6045 71.4288 26.8468 71.5022C26.9644 71.5435 27.0879 71.5822 27.2051 71.6262C27.2441 71.6382 27.378 71.6928 27.4707 71.7302L27.7805 71.8742C28.6139 72.2622 29.3832 72.7502 30.2072 73.2395L30.1504 73.2862C29.3692 73.9195 28.6009 74.5395 27.8769 75.0928C27.654 75.2635 27.6051 75.2875 27.4837 75.3635C27.3801 75.4302 27.2692 75.5008 27.1639 75.5622C26.9468 75.6848 26.7228 75.8048 26.5004 75.9035C26.0436 76.1088 25.5583 76.2475 25.0889 76.2995C24.6135 76.3462 24.1535 76.2888 23.7801 76.1608C23.0187 75.9008 22.604 75.4622 22.354 75.1662C22.1051 74.8608 22.0139 74.6755 22.0103 74.6769C22.0119 74.6729 22.2004 74.7675 22.5515 74.8942C22.8911 75.0102 23.4015 75.1475 23.9379 75.0888C24.4744 75.0368 25.0056 74.7729 25.59 74.3155C25.7395 74.2062 25.8863 74.0849 26.0416 73.9489L26.278 73.7422C26.342 73.6849 26.4805 73.5702 26.4373 73.5915C26.4327 73.5568 26.4061 73.5568 26.4056 73.5568C26.4067 73.5595 26.4359 73.5542 26.4368 73.5208L26.4353 73.5075C26.4253 73.4982 26.454 73.5048 26.3879 73.4648L26.1207 73.3248C25.9483 73.2342 25.7749 73.1448 25.604 73.0702C24.9343 72.7662 24.3468 72.6195 23.8405 72.6968C23.3305 72.7608 22.9097 73.0608 22.6452 73.2982Z" fill="#E6AC26"/>
<path d="M19.1119 86.4089C18.5729 85.6182 18.0406 84.8849 17.5963 84.0795L17.4322 83.7809C17.3874 83.6902 17.325 83.5649 17.3083 83.5222C17.2583 83.4089 17.2041 83.2955 17.1587 83.1742C17.0693 82.9382 16.9917 82.6995 16.9218 82.4662C16.7942 81.9862 16.7259 81.4942 16.7421 81.0235C16.7546 80.5569 16.8614 80.1089 17.0447 79.7569C17.4139 79.0329 17.9587 78.7529 18.2911 78.6169C18.6447 78.4769 18.8401 78.4595 18.839 78.4555C18.8417 78.4569 18.6969 78.6062 18.4901 78.8889C18.2859 79.1662 18.0385 79.6022 18.0218 80.1142C17.9978 80.6209 18.1906 81.1955 18.5395 81.8422C18.6311 82.0075 18.725 82.1769 18.8275 82.3409L18.9911 82.5982C19.0281 82.6582 19.0187 82.6342 19.0286 82.6435H19.0417C19.0729 82.6409 19.075 82.6115 19.0745 82.6115C19.0745 82.6115 19.0759 82.6382 19.1087 82.6395C19.0921 82.6782 19.1958 82.5409 19.2453 82.4715L19.4161 82.2262C19.5311 82.0609 19.6343 81.9089 19.7265 81.7529C20.1103 81.1449 20.3155 80.6022 20.3177 80.0609C20.325 79.5222 20.1426 79.0222 19.9953 78.6915C19.851 78.3582 19.7442 78.1689 19.7483 78.1689C19.7469 78.1702 19.9322 78.2569 20.2417 78.4795C20.5421 78.7102 21.0035 79.1009 21.3182 79.8355C21.4739 80.2009 21.5677 80.6529 21.565 81.1289C21.5645 81.6009 21.4734 82.0875 21.3193 82.5555C21.2447 82.7889 21.1562 83.0169 21.0515 83.2355C21.0026 83.3515 20.9505 83.4582 20.8983 83.5689C20.8297 83.6915 20.8103 83.7409 20.6734 83.9715C20.2093 84.7315 19.6859 85.5329 19.151 86.3422L19.1119 86.4089Z" fill="#E6AC26"/>
<path d="M21.349 75.8342C21.3964 77.9822 18.0766 78.0569 18.023 75.9075C17.976 73.7595 21.3022 73.6849 21.349 75.8342Z" fill="#E6AC26"/>
<path d="M1.58576 17.1116C1.85656 19.1263 2.50856 21.4543 3.83829 23.6717C4.43416 24.6797 5.17216 25.6663 6.03416 26.597C6.70709 27.3343 7.45909 28.0303 8.27683 28.6823C8.69709 29.0277 9.13309 29.357 9.58669 29.6663C10.8222 30.5103 12.1086 31.2156 13.4044 31.7676C14.6847 32.321 16.0076 32.7143 17.3066 33.0143C19.8946 33.6076 22.3295 33.793 24.3544 33.6717C26.3847 33.5597 28.0086 33.1143 29.0852 32.6703C30.167 32.2263 30.7107 31.8303 30.718 31.845C30.7076 31.833 30.3039 32.373 29.3252 33.093C28.3508 33.8224 26.7544 34.689 24.5967 35.2196C22.4467 35.7543 19.7831 35.9677 16.856 35.6157C15.4028 35.441 13.8591 35.121 12.3102 34.5543C10.7711 33.997 9.25496 33.2316 7.82429 32.2503C7.71283 32.173 7.60189 32.089 7.49243 32.005C6.62003 31.385 5.80963 30.7023 5.07216 29.9663C3.53416 28.4277 2.30656 26.677 1.49403 24.8877C0.220561 22.1303 -0.0908652 19.373 0.0210948 17.1717C0.132561 14.9557 0.616961 13.2503 0.996161 12.1103C1.38203 10.9703 1.67003 10.377 1.66483 10.3743C1.67109 10.3743 1.57056 11.0303 1.46949 12.2116C1.38723 13.385 1.31229 15.093 1.58576 17.1116Z" fill="#E6AC26"/>
<path d="M6.8014 32.8783C6.33994 34.3009 5.7618 35.6863 5.1274 37.0756C4.81287 37.7729 4.49194 38.4476 4.16954 39.1156C3.9962 39.4636 3.8638 39.733 3.73367 40.025C3.60914 40.3143 3.49407 40.609 3.39154 40.9036C2.9826 42.0876 2.7602 43.3143 2.69714 44.4903C2.5618 46.8463 3.08154 49.0156 3.95554 50.6063C4.8222 52.2143 6.04714 53.2076 6.9826 53.7276C7.92687 54.253 8.55287 54.393 8.54354 54.405C8.54714 54.389 7.9186 54.4569 6.7998 54.1849C5.70034 53.9156 4.06594 53.1676 2.67634 51.4996C1.28674 49.8583 0.221137 47.3783 0.0560708 44.5103C-0.0262359 43.0783 0.103405 41.5463 0.534205 40.021C0.638338 39.641 0.765405 39.2543 0.908205 38.8783C1.05447 38.5009 1.22687 38.109 1.37167 37.797L2.28154 35.785C2.89354 34.4303 3.48674 33.1183 3.98674 31.8663C4.16954 31.413 4.32634 30.9717 4.48047 30.5263C5.21807 31.2637 6.029 31.945 6.9014 32.5663C6.86914 32.673 6.83527 32.7756 6.8014 32.8783Z" fill="#E6AC26"/>
<path d="M6.23966 25.8115L6.43859 25.0209C6.56259 24.4916 6.63806 23.9662 6.66979 23.4448C6.73392 22.4035 6.62246 21.4089 6.39739 20.5275C5.95219 18.7542 5.03553 17.4715 4.26099 16.7382C3.47713 15.9915 2.89739 15.7222 2.90886 15.7102C2.90113 15.7262 3.53553 15.7915 4.54899 16.3395C5.55219 16.8795 6.93233 18.0275 7.86046 19.9822C8.32659 20.9515 8.67979 22.1009 8.80273 23.3862C8.87033 24.0249 8.88032 24.6969 8.81152 25.3915C8.74019 26.0609 8.67246 26.6609 8.57819 27.3435C8.55272 27.5222 8.51312 27.7155 8.48286 27.9035C7.66459 27.2448 6.91886 26.5488 6.23966 25.8115Z" fill="#E6AC26"/>
</svg>