<svg width="12" height="12" viewBox="0 0 12 12" fill="none" xmlns="http://www.w3.org/2000/svg">
<path d="M2.79948 3.2V1.06667C2.79948 0.783769 2.91186 0.512458 3.1119 0.312419C3.31194 0.112381 3.58325 0 3.86615 0H8.13281C8.41571 0 8.68702 0.112381 8.88706 0.312419C9.0871 0.512458 9.19948 0.783769 9.19948 1.06667V3.2H10.7995C11.0824 3.2 11.3537 3.31238 11.5537 3.51242C11.7538 3.71246 11.8661 3.98377 11.8661 4.26667V10.6667C11.8661 10.9496 11.7538 11.2209 11.5537 11.4209C11.3537 11.621 11.0824 11.7333 10.7995 11.7333H1.19948C0.916582 11.7333 0.645271 11.621 0.445232 11.4209C0.245193 11.2209 0.132813 10.9496 0.132812 10.6667V4.26667C0.132812 3.98377 0.245193 3.71246 0.445232 3.51242C0.645271 3.31238 0.916582 3.2 1.19948 3.2H2.79948ZM3.86615 1.06667V3.2H8.13281V1.06667H3.86615Z" fill="#F6CD66"/>
</svg>