<svg width="238" height="41" viewBox="0 0 238 41" fill="none" xmlns="http://www.w3.org/2000/svg">
<path d="M1.67023 13.3287L236.329 13.3287C236.771 13.3287 237.132 13.6941 237.132 14.146C237.132 14.6004 236.771 14.9658 236.329 14.9658L1.67023 14.9658C1.22754 14.9658 0.869583 14.6004 0.869583 14.146C0.869583 13.6941 1.22754 13.3287 1.67023 13.3287Z" fill="url(#paint0_linear_290_1479)"/>
<path d="M233.863 12.1963C233.705 12.4199 233.658 12.8262 233.721 13.1459C233.802 13.5593 234.096 13.8863 234.506 14.1483C234.096 14.4103 233.802 14.7349 233.721 15.1483C233.658 15.4681 233.705 15.8767 233.863 16.0979C234.273 16.6724 234.918 16.7277 235.605 16.5354C236.7 16.2277 237.927 14.2829 237.984 14.1964C237.995 14.1819 238 14.1651 238 14.1483V14.1459C238 14.1291 237.995 14.1122 237.984 14.0978C237.927 14.0113 236.7 12.0665 235.605 11.7588C234.918 11.5665 234.273 11.6242 233.863 12.1963Z" fill="url(#paint1_linear_290_1479)"/>
<path d="M4.13492 16.0979C4.29269 15.8767 4.34213 15.4681 4.27855 15.1483C4.19614 14.7349 3.90182 14.4103 3.49446 14.1483C3.90182 13.8863 4.19614 13.5593 4.27855 13.1459C4.34213 12.8262 4.29269 12.4199 4.13492 12.1963C3.7252 11.6242 3.08003 11.5665 2.39246 11.7588C1.2975 12.0665 0.0706635 14.0113 0.0141449 14.0978C0.00473022 14.1122 0 14.1291 0 14.1459V14.1483C0 14.1651 0.00473022 14.1819 0.0141449 14.1964C0.0706635 14.2829 1.2975 16.2277 2.39246 16.5354C3.08003 16.7277 3.7252 16.6724 4.13492 16.0979Z" fill="url(#paint2_linear_290_1479)"/>
<path d="M145.657 22.1267C145.497 21.2421 146.074 20.7084 146.736 19.8478C147.343 18.9968 148.351 17.4127 148.009 15.5112C147.821 14.5713 147.232 13.5183 146.199 12.7034C145.167 11.8885 143.736 11.3957 142.219 11.5664C140.677 11.6986 139.071 12.6193 137.851 14.0088C137.307 14.7468 136.702 15.5088 136.5 16.4968C136.375 16.9728 136.16 17.4319 136.097 17.9343C136.059 18.4439 136.024 18.9584 135.986 19.4753C136.043 21.7205 136.695 24.0811 138.089 26.0595C139.448 28.0548 141.461 29.6942 143.799 30.5789C148.389 32.4924 154.471 30.877 157.593 26.6076C160.829 22.4128 161.106 16.0809 158.719 11.3765C156.336 6.5999 151.723 3.31137 147.004 2.01086C144.64 1.34498 142.236 1.09497 139.926 1.16949C137.618 1.28969 135.419 1.67189 133.377 2.23681C129.289 3.39549 125.924 5.27295 123.299 7.05184C120.706 8.89804 118.86 10.713 117.702 12.0472C117.134 12.7299 116.694 13.2563 116.395 13.6121C116.093 13.9679 115.929 14.1482 115.917 14.1409C115.905 14.1337 116.042 13.9318 116.315 13.5496C116.593 13.1722 117.002 12.6121 117.532 11.8909C118.629 10.4846 120.421 8.56391 122.995 6.58549C125.604 4.6768 128.976 2.64307 133.153 1.33294C137.298 0.0444489 142.306 -0.602177 147.392 0.756027C152.425 2.02288 157.478 5.41961 160.205 10.6866C162.908 15.9006 162.785 22.9104 159.044 27.8697C155.389 32.8554 148.433 34.7472 142.968 32.502C137.444 30.4322 133.832 24.7783 133.945 19.3502C133.989 18.7252 134.036 18.1026 134.081 17.4896C134.199 16.8838 134.404 16.2948 134.564 15.7059C134.835 14.5063 135.532 13.4606 136.215 12.5159C137.677 10.6769 139.671 9.32594 141.871 8.92449C146.387 8.05187 150.456 11.0664 151.374 14.6915C151.881 16.5425 151.511 18.242 150.953 19.5209C150.414 20.8358 149.5 21.7181 148.711 22.2806C147.849 22.7854 147.11 22.997 146.557 22.8768C146.017 22.795 145.742 22.5378 145.657 22.1267Z" fill="url(#paint3_linear_290_1479)"/>
<path d="M173.273 24.6558C173.045 25.4611 172.538 25.7929 171.66 25.6078C171.267 25.3914 170.678 25.1126 170.341 24.4491C169.936 23.8289 169.772 22.9707 169.861 22.1822C170.047 20.5716 171.01 19.1605 172.472 18.1773C173.252 17.7518 174.144 17.3263 175.19 17.4008C176.202 17.4273 177.22 17.8552 177.959 18.4898C178.385 18.824 178.762 19.1941 179.049 19.6196C179.209 19.8336 179.358 20.0091 179.555 20.3024L179.873 21.0524C180.095 21.5163 180.26 22.0211 180.37 22.562C180.535 23.0788 180.566 23.6462 180.592 24.2183C180.74 26.5718 179.367 28.7929 177.78 30.2137L177.109 30.8243C176.767 31.0262 176.473 31.0887 176.226 31.1945C175.706 31.406 175.178 31.579 174.611 31.6247C174.06 31.7353 173.506 31.7714 172.953 31.7041C172.395 31.7065 171.863 31.6007 171.345 31.4444C169.254 30.8843 167.563 29.6367 166.232 28.3122C163.569 25.6078 162.182 22.5116 161.579 20.2543C161.269 19.1221 161.163 18.1773 161.141 17.5355C161.141 16.8888 161.156 16.5402 161.186 16.5402C161.276 16.533 161.283 17.9585 162.102 20.086C162.893 22.187 164.495 25.0452 167.12 27.3554C168.422 28.49 170.007 29.4756 171.738 29.8266C172.166 29.9396 172.602 29.9925 173.04 29.9636C173.478 30.0021 173.909 29.9372 174.335 29.8314C174.771 29.7881 175.178 29.6127 175.581 29.4324C175.788 29.3362 175.993 29.2834 176.059 29.2161L176.499 28.7809C177.808 27.4852 178.679 25.8842 178.538 24.2423C178.515 23.8337 178.489 23.4274 178.352 23.0284C178.274 22.6221 178.136 22.2279 177.952 21.8456C177.789 21.3913 177.698 21.2495 177.413 20.9057C177.196 20.5668 176.935 20.336 176.676 20.1221C175.703 19.2519 174.655 19.6533 174.031 20.3144C173.398 21.0356 173.235 21.9707 173.318 22.3529C173.41 22.7399 173.426 22.5885 173.386 22.9827C173.483 23.2664 173.504 23.8505 173.273 24.6558Z" fill="url(#paint4_linear_290_1479)"/>
<path d="M92.3438 22.1268C92.2566 22.5379 91.9811 22.7951 91.4395 22.8768C90.8862 22.997 90.1421 22.7831 89.2803 22.2735C88.4891 21.7061 87.5731 20.8191 87.0362 19.4969C86.4852 18.2109 86.1108 16.5065 86.6312 14.6483C87.5731 11.0112 91.6797 8.02313 96.2031 8.93661C98.4095 9.35489 100.39 10.7395 101.847 12.5881C102.511 13.5497 103.22 14.5978 103.465 15.8094C103.616 16.4008 103.851 16.9873 103.929 17.5979C103.971 18.2157 104.016 18.8383 104.061 19.4657C104.103 24.8889 100.479 30.5261 94.9269 32.5381C89.4545 34.7449 82.5057 32.805 78.8982 27.788C75.2107 22.8119 75.0977 15.8142 77.8292 10.6145C80.5795 5.36681 85.6351 2.00133 90.6601 0.739277C93.1891 0.0902214 95.7251 -0.0972595 98.1293 0.0445709C100.531 0.234478 102.796 0.69841 104.88 1.34266C109.048 2.65759 112.413 4.68892 115.015 6.59761C117.586 8.57362 119.376 10.4895 120.471 11.8958C120.998 12.617 121.408 13.1747 121.684 13.5521C121.957 13.9319 122.093 14.1338 122.082 14.141C122.07 14.1482 121.905 13.9656 121.604 13.6122C121.305 13.254 120.864 12.7251 120.294 12.0424C119.134 10.7083 117.285 8.8909 114.685 7.0423C112.055 5.26341 108.686 3.38121 104.588 2.22974C102.544 1.66242 100.34 1.28737 98.0304 1.16958C95.7181 1.09266 93.3115 1.35229 90.945 2.02779C86.2214 3.33311 81.6109 6.65048 79.2514 11.4415C76.8896 16.1627 77.1745 22.5018 80.4547 26.675C83.6218 30.9203 89.7041 32.4924 94.2887 30.5453C96.6246 29.6486 98.612 27.9755 99.9636 25.9803C101.348 23.9922 101.977 21.6196 102.005 19.3792C101.97 18.8623 101.932 18.3503 101.897 17.8431C101.791 17.3527 101.607 16.8863 101.475 16.4128C101.252 15.4416 100.661 14.6747 100.096 13.9535C98.8758 12.5689 97.2628 11.6794 95.7275 11.5568C94.2181 11.403 92.7841 11.8958 91.7715 12.7276C90.7472 13.5449 90.168 14.5978 89.9867 15.5329C89.7794 16.4416 90.0079 17.3695 90.2834 18.0931C90.5377 18.8599 90.9686 19.3719 91.27 19.8527C91.9293 20.7085 92.5015 21.2422 92.3438 22.1268Z" fill="url(#paint5_linear_290_1479)"/>
<path d="M64.7253 24.6558C64.4945 23.8505 64.5181 23.2664 64.6123 22.9827C64.5722 22.5885 64.591 22.7399 64.6805 22.3481C64.7606 21.9635 64.5934 21.0235 63.9553 20.3048C63.3266 19.6461 62.2764 19.2591 61.3015 20.1389C61.0401 20.3481 60.7834 20.5932 60.5692 20.9322L60.2536 21.3456L60.0323 21.8769C59.8462 22.2592 59.7191 22.6534 59.6367 23.0572C59.5001 23.4587 59.4883 23.865 59.4577 24.2736C59.3211 25.9155 60.2136 27.5092 61.5205 28.8001L61.9491 29.228C62.0268 29.2857 62.2339 29.3483 62.4411 29.442C62.8438 29.6295 63.2535 29.793 63.6892 29.8362C64.1154 29.9468 64.5463 30.0021 64.9843 29.9636C65.4223 29.9925 65.8555 29.93 66.2841 29.8218C68.0125 29.466 69.5949 28.478 70.8947 27.341C73.5108 25.0333 75.112 22.1774 75.9008 20.0812C76.7156 17.9586 76.7226 16.533 76.8144 16.5402C76.8427 16.5402 76.8569 16.8888 76.8592 17.5379C76.838 18.1797 76.7297 19.1269 76.4189 20.2615C75.8137 22.5212 74.4244 25.6246 71.7518 28.3266C70.419 29.6511 68.7212 30.8987 66.6279 31.4516C66.1075 31.6127 65.573 31.7065 65.0149 31.7065C64.4615 31.7762 63.9082 31.7257 63.3548 31.6223C62.7873 31.5766 62.2622 31.3892 61.7394 31.1824C61.4969 31.0695 61.1814 31.0262 60.854 30.793L60.1924 30.1896C58.6006 28.7641 57.2514 26.526 57.4091 24.175C57.4303 23.6029 57.475 23.0404 57.6375 22.5212C57.7458 21.9779 57.9225 21.4803 58.1415 21.0139L58.4711 20.2471L58.975 19.586C59.2599 19.1605 59.6555 18.7951 60.0747 18.4609C60.8235 17.8383 61.8384 17.4105 62.8509 17.4032C63.8917 17.3383 64.7794 17.7686 65.5494 18.1989C67.0023 19.1821 67.9583 20.5932 68.1396 22.199C68.2244 22.9875 68.0572 23.8433 67.6498 24.4587C67.3131 25.1174 66.7268 25.3963 66.3335 25.6078C65.4599 25.7929 64.9561 25.4611 64.7253 24.6558Z" fill="url(#paint6_linear_290_1479)"/>
<path d="M131.382 32.6417C131.382 31.7546 132.086 31.0358 132.955 31.0358C133.824 31.0358 134.528 31.7546 134.528 32.6417C134.528 33.5287 133.824 34.2474 132.955 34.2474C132.086 34.2474 131.382 33.5287 131.382 32.6417Z" fill="url(#paint7_linear_290_1479)"/>
<path d="M103.47 32.6417C103.47 31.7546 104.174 31.0358 105.043 31.0358C105.912 31.0358 106.616 31.7546 106.616 32.6417C106.616 33.5287 105.912 34.2474 105.043 34.2474C104.174 34.2474 103.47 33.5287 103.47 32.6417Z" fill="url(#paint8_linear_290_1479)"/>
<path d="M117.549 39.3942C117.549 38.5072 118.253 37.7884 119.122 37.7884C119.988 37.7884 120.695 38.5072 120.695 39.3942C120.695 40.2812 119.988 41 119.122 41C118.253 41 117.549 40.2812 117.549 39.3942Z" fill="url(#paint9_linear_290_1479)"/>
<path d="M109.522 19.2397L128.48 19.2397V19.8959L109.522 19.8959V19.2397ZM113.433 27.3288L118.999 36.5525L124.566 27.3288L131.903 30.5644L128.762 17.3646L109.239 17.3646L106.096 30.5644L113.433 27.3288Z" fill="url(#paint10_linear_290_1479)"/>
<defs>
<linearGradient id="paint0_linear_290_1479" x1="26.3361" y1="3.90477" x2="222.933" y2="56.5551" gradientUnits="userSpaceOnUse">
<stop stop-color="#AE7723"/>
<stop offset="0.411458" stop-color="#FFB23C"/>
<stop offset="0.432292" stop-color="#9B681B"/>
<stop offset="1" stop-color="#4E3002"/>
</linearGradient>
<linearGradient id="paint1_linear_290_1479" x1="26.3361" y1="3.90477" x2="222.933" y2="56.5551" gradientUnits="userSpaceOnUse">
<stop stop-color="#AE7723"/>
<stop offset="0.411458" stop-color="#FFB23C"/>
<stop offset="0.432292" stop-color="#9B681B"/>
<stop offset="1" stop-color="#4E3002"/>
</linearGradient>
<linearGradient id="paint2_linear_290_1479" x1="26.3361" y1="3.90477" x2="222.933" y2="56.5551" gradientUnits="userSpaceOnUse">
<stop stop-color="#AE7723"/>
<stop offset="0.411458" stop-color="#FFB23C"/>
<stop offset="0.432292" stop-color="#9B681B"/>
<stop offset="1" stop-color="#4E3002"/>
</linearGradient>
<linearGradient id="paint3_linear_290_1479" x1="26.3361" y1="3.90477" x2="222.933" y2="56.5551" gradientUnits="userSpaceOnUse">
<stop stop-color="#AE7723"/>
<stop offset="0.411458" stop-color="#FFB23C"/>
<stop offset="0.432292" stop-color="#9B681B"/>
<stop offset="1" stop-color="#4E3002"/>
</linearGradient>
<linearGradient id="paint4_linear_290_1479" x1="26.3361" y1="3.90477" x2="222.933" y2="56.5551" gradientUnits="userSpaceOnUse">
<stop stop-color="#AE7723"/>
<stop offset="0.411458" stop-color="#FFB23C"/>
<stop offset="0.432292" stop-color="#9B681B"/>
<stop offset="1" stop-color="#4E3002"/>
</linearGradient>
<linearGradient id="paint5_linear_290_1479" x1="26.3361" y1="3.90477" x2="222.933" y2="56.5551" gradientUnits="userSpaceOnUse">
<stop stop-color="#AE7723"/>
<stop offset="0.411458" stop-color="#FFB23C"/>
<stop offset="0.432292" stop-color="#9B681B"/>
<stop offset="1" stop-color="#4E3002"/>
</linearGradient>
<linearGradient id="paint6_linear_290_1479" x1="26.3361" y1="3.90477" x2="222.933" y2="56.5551" gradientUnits="userSpaceOnUse">
<stop stop-color="#AE7723"/>
<stop offset="0.411458" stop-color="#FFB23C"/>
<stop offset="0.432292" stop-color="#9B681B"/>
<stop offset="1" stop-color="#4E3002"/>
</linearGradient>
<linearGradient id="paint7_linear_290_1479" x1="26.3361" y1="3.90477" x2="222.933" y2="56.5551" gradientUnits="userSpaceOnUse">
<stop stop-color="#AE7723"/>
<stop offset="0.411458" stop-color="#FFB23C"/>
<stop offset="0.432292" stop-color="#9B681B"/>
<stop offset="1" stop-color="#4E3002"/>
</linearGradient>
<linearGradient id="paint8_linear_290_1479" x1="26.3361" y1="3.90477" x2="222.933" y2="56.5551" gradientUnits="userSpaceOnUse">
<stop stop-color="#AE7723"/>
<stop offset="0.411458" stop-color="#FFB23C"/>
<stop offset="0.432292" stop-color="#9B681B"/>
<stop offset="1" stop-color="#4E3002"/>
</linearGradient>
<linearGradient id="paint9_linear_290_1479" x1="26.3361" y1="3.90477" x2="222.933" y2="56.5551" gradientUnits="userSpaceOnUse">
<stop stop-color="#AE7723"/>
<stop offset="0.411458" stop-color="#FFB23C"/>
<stop offset="0.432292" stop-color="#9B681B"/>
<stop offset="1" stop-color="#4E3002"/>
</linearGradient>
<linearGradient id="paint10_linear_290_1479" x1="26.3361" y1="3.90477" x2="222.933" y2="56.5551" gradientUnits="userSpaceOnUse">
<stop stop-color="#AE7723"/>
<stop offset="0.411458" stop-color="#FFB23C"/>
<stop offset="0.432292" stop-color="#9B681B"/>
<stop offset="1" stop-color="#4E3002"/>
</linearGradient>
</defs>
</svg>