<svg width="20" height="20" viewBox="0 0 20 20" fill="none" xmlns="http://www.w3.org/2000/svg">
<path d="M19.365 9.92979C19.365 14.631 15.9157 18.5285 11.4131 19.2358V12.6709H13.6024L14.0192 9.95491H11.4131V8.19263C11.4131 7.44925 11.7773 6.7255 12.9438 6.7255H14.1283V4.41294C14.1283 4.41294 13.0529 4.22925 12.0254 4.22925C9.87923 4.22925 8.47726 5.52997 8.47726 7.88413V9.95413H6.0917V12.6702H8.47726V19.235C3.97539 18.5269 0.525391 14.6303 0.525391 9.92979C0.525391 4.72772 4.7431 0.51001 9.94517 0.51001C15.1472 0.51001 19.365 4.72693 19.365 9.92979Z" fill="url(#paint0_linear_15_2164)"/>
<defs>
<linearGradient id="paint0_linear_15_2164" x1="9.94517" y1="0.51001" x2="9.94517" y2="19.2358" gradientUnits="userSpaceOnUse">
<stop stop-color="#DDB34A"/>
<stop offset="1" stop-color="#966C05"/>
</linearGradient>
</defs>
</svg>