<svg width="20" height="20" viewBox="0 0 20 20" fill="none" xmlns="http://www.w3.org/2000/svg">
<path fill-rule="evenodd" clip-rule="evenodd" d="M16.8494 3.19065C15.0863 1.42601 12.7424 0.453422 10.2453 0.452637C5.09979 0.452637 0.911908 4.63973 0.909553 9.78764C0.908768 11.433 1.33894 13.039 2.1561 14.4551L0.831055 19.2922L5.77958 17.9938C7.14309 18.738 8.67852 19.1297 10.2406 19.1305H10.2446C15.3893 19.1305 19.578 14.9426 19.5803 9.7947C19.5819 7.30082 18.6117 4.95451 16.8494 3.19065ZM10.2453 17.5535H10.2422C8.84964 17.5535 7.48456 17.179 6.29296 16.4718L6.00958 16.3038L3.07296 17.0738L3.85716 14.2102L3.67269 13.9166C2.89556 12.6811 2.4858 11.2532 2.48658 9.78764C2.48815 5.50949 5.96955 2.02888 10.2493 2.02888C12.3216 2.02888 14.2699 2.83741 15.7347 4.30376C17.1995 5.77089 18.0057 7.72 18.0049 9.79313C18.0025 14.0729 14.5219 17.5535 10.2453 17.5535ZM14.5015 11.7422C14.2684 11.6253 13.1215 11.0609 12.9072 10.9832C12.6937 10.9055 12.5383 10.8662 12.3821 11.0993C12.2259 11.3325 11.78 11.8584 11.6434 12.0146C11.5076 12.1701 11.371 12.1897 11.1379 12.0727C10.9047 11.9558 10.1527 11.7101 9.26176 10.9149C8.56862 10.2963 8.09999 9.53252 7.96418 9.2986C7.82838 9.06467 7.95005 8.93907 8.06623 8.8229C8.17142 8.71849 8.29937 8.55051 8.41633 8.41392C8.53408 8.2789 8.57254 8.18157 8.65104 8.02536C8.72876 7.86993 8.69029 7.73334 8.63142 7.61638C8.57255 7.5002 8.10627 6.35177 7.91238 5.88471C7.7232 5.42942 7.53087 5.49143 7.38722 5.48437C7.25142 5.4773 7.09599 5.47652 6.93978 5.47652C6.78436 5.47652 6.53159 5.53461 6.31808 5.76853C6.10456 6.00246 5.5017 6.56686 5.5017 7.7145C5.5017 8.86293 6.3377 9.97211 6.45388 10.1275C6.57006 10.283 8.09842 12.6395 10.4384 13.6497C10.995 13.89 11.4299 14.0336 11.7682 14.1411C12.3271 14.3186 12.8358 14.2934 13.2377 14.2338C13.6859 14.1671 14.6177 13.6694 14.8124 13.1246C15.007 12.5798 15.007 12.112 14.9482 12.0154C14.8901 11.9173 14.7347 11.8592 14.5015 11.7422Z" fill="url(#paint0_linear_15_2168)"/>
<defs>
<linearGradient id="paint0_linear_15_2168" x1="10.2057" y1="0.452637" x2="10.2057" y2="19.2922" gradientUnits="userSpaceOnUse">
<stop stop-color="#DDB34A"/>
<stop offset="1" stop-color="#6A4D03"/>
</linearGradient>
</defs>
</svg>