<svg width="23" height="20" viewBox="0 0 23 20" fill="none" xmlns="http://www.w3.org/2000/svg">
<path d="M22.0114 18.4401H22.2226L21.8179 17.8279C22.0654 17.8279 22.1966 17.6707 22.1984 17.4781C22.1984 17.4707 22.1984 17.4623 22.1975 17.4548C22.1975 17.1925 22.0394 17.0669 21.7147 17.0669H21.1899V18.4401H21.3872V17.8419H21.63L22.0114 18.4401ZM21.616 17.6865H21.3872V17.2223H21.6774C21.8272 17.2223 21.9984 17.2465 21.9984 17.4428C21.9984 17.6679 21.8263 17.6865 21.616 17.6865Z" fill="url(#paint0_linear_15_2176)"/>
<path d="M16.6975 16.104H13.8999V11.723C13.8999 10.6782 13.8813 9.33385 12.4449 9.33385C10.988 9.33385 10.7647 10.4717 10.7647 11.6476V16.104H7.96804V7.0945H10.654V8.32535H10.6912C11.2391 7.38942 12.2569 6.83028 13.3408 6.87029C16.1765 6.87029 16.6984 8.73564 16.6984 11.1611L16.6975 16.104ZM4.81136 5.86272C3.91451 5.86272 3.18791 5.13612 3.18791 4.23926C3.18791 3.34241 3.91451 2.6158 4.81136 2.6158C5.70822 2.6158 6.43482 3.34241 6.43482 4.23926C6.43482 5.13612 5.70822 5.86272 4.81136 5.86272ZM6.20968 16.104H3.40933V7.0945H6.20968V16.104ZM18.0921 0.0182693H2.00357C1.24348 0.0098962 0.620143 0.619275 0.61084 1.37937V17.5339C0.620143 18.295 1.24348 18.9043 2.00357 18.896H18.0921C18.854 18.9053 19.4802 18.2959 19.4904 17.5339V1.37844C19.4792 0.616483 18.8531 0.00710511 18.0921 0.0173389" fill="url(#paint1_linear_15_2176)"/>
<path d="M21.6399 16.4556C20.9291 16.4621 20.3579 17.0445 20.3653 17.7553C20.3718 18.466 20.9542 19.0373 21.665 19.0298C22.3758 19.0233 22.947 18.4409 22.9396 17.7301C22.9331 17.0287 22.3656 16.4621 21.665 16.4556H21.6399ZM21.6697 18.8819C21.0463 18.8921 20.503 18.3963 20.4928 17.7729C20.4825 17.1496 20.9793 16.6361 21.6027 16.6258C22.226 16.6156 22.7396 17.1124 22.7498 17.7357C22.7498 17.7422 22.7498 17.7478 22.7498 17.7543C22.7628 18.3637 22.279 18.8689 21.6697 18.8819H21.6408H21.6697Z" fill="url(#paint2_linear_15_2176)"/>
<defs>
<linearGradient id="paint0_linear_15_2176" x1="21.7063" y1="17.0669" x2="21.7063" y2="18.4401" gradientUnits="userSpaceOnUse">
<stop stop-color="#DDB34A"/>
<stop offset="1" stop-color="#6A4D03"/>
</linearGradient>
<linearGradient id="paint1_linear_15_2176" x1="10.0506" y1="0.0172119" x2="10.0506" y2="18.8961" gradientUnits="userSpaceOnUse">
<stop stop-color="#DDB34A"/>
<stop offset="1" stop-color="#6A4D03"/>
</linearGradient>
<linearGradient id="paint2_linear_15_2176" x1="21.6524" y1="16.4556" x2="21.6524" y2="19.0299" gradientUnits="userSpaceOnUse">
<stop stop-color="#DDB34A"/>
<stop offset="1" stop-color="#6A4D03"/>
</linearGradient>
</defs>
</svg>