<svg width="19" height="20" viewBox="0 0 19 20" fill="none" xmlns="http://www.w3.org/2000/svg">
<path d="M9.46763 2.14952C11.9827 2.14952 12.281 2.15894 13.274 2.20447C14.3008 2.25157 15.3581 2.4855 16.1062 3.23358C16.8614 3.98874 17.0882 5.0359 17.1353 6.0658C17.1809 7.0588 17.1903 7.35709 17.1903 9.87217C17.1903 12.3873 17.1809 12.6855 17.1353 13.6786C17.089 14.6998 16.8496 15.7674 16.1062 16.5108C15.3511 17.2659 14.3047 17.4928 13.274 17.5399C12.281 17.5854 11.9827 17.5948 9.46763 17.5948C6.95255 17.5948 6.65426 17.5854 5.66126 17.5399C4.64784 17.4936 3.56614 17.2486 2.82904 16.5108C2.07781 15.7595 1.84703 14.7022 1.79993 13.6786C1.7544 12.6855 1.74498 12.3873 1.74498 9.87217C1.74498 7.35709 1.7544 7.0588 1.79993 6.0658C1.84624 5.04846 2.08802 3.97461 2.82904 3.23358C3.58262 2.48 4.63371 2.25157 5.66126 2.20447C6.65426 2.15894 6.95255 2.14952 9.46763 2.14952ZM9.46763 0.452393C6.90938 0.452393 6.58832 0.463382 5.58354 0.508911C4.1274 0.575635 2.68147 0.980685 1.6288 2.03335C0.572219 3.08993 0.171094 4.53273 0.10437 5.98808C0.0588413 6.99286 0.0478516 7.31392 0.0478516 9.87217C0.0478516 12.4304 0.0588413 12.7515 0.10437 13.7563C0.171094 15.2108 0.577714 16.6607 1.6288 17.711C2.68461 18.7668 4.12976 19.1687 5.58354 19.2354C6.58832 19.281 6.90938 19.292 9.46763 19.292C12.0259 19.292 12.3469 19.281 13.3517 19.2354C14.8071 19.1687 16.2546 18.7629 17.3065 17.711C18.3638 16.6536 18.7642 15.2116 18.8309 13.7563C18.8764 12.7515 18.8874 12.4304 18.8874 9.87217C18.8874 7.31392 18.8764 6.99286 18.8309 5.98808C18.7642 4.53194 18.3583 3.08522 17.3065 2.03335C16.2522 0.979115 14.8032 0.57485 13.3517 0.508911C12.3469 0.463382 12.0259 0.452393 9.46763 0.452393Z" fill="url(#paint0_linear_15_2171)"/>
<path d="M9.46743 5.03528C6.79614 5.03528 4.63037 7.20104 4.63037 9.87234C4.63037 12.5436 6.79614 14.7094 9.46743 14.7094C12.1387 14.7094 14.3045 12.5436 14.3045 9.87234C14.3045 7.20104 12.1387 5.03528 9.46743 5.03528ZM9.46743 13.0123C7.7334 13.0123 6.3275 11.6064 6.3275 9.87234C6.3275 8.13831 7.7334 6.73241 9.46743 6.73241C11.2015 6.73241 12.6074 8.13831 12.6074 9.87234C12.6074 11.6064 11.2015 13.0123 9.46743 13.0123Z" fill="url(#paint1_linear_15_2171)"/>
<path d="M14.4961 5.97413C15.1204 5.97413 15.6265 5.46804 15.6265 4.84375C15.6265 4.21946 15.1204 3.71338 14.4961 3.71338C13.8718 3.71338 13.3657 4.21946 13.3657 4.84375C13.3657 5.46804 13.8718 5.97413 14.4961 5.97413Z" fill="url(#paint2_linear_15_2171)"/>
<defs>
<linearGradient id="paint0_linear_15_2171" x1="9.46763" y1="0.452393" x2="9.46763" y2="19.292" gradientUnits="userSpaceOnUse">
<stop stop-color="#DDB34A"/>
<stop offset="1" stop-color="#6A4D03"/>
</linearGradient>
<linearGradient id="paint1_linear_15_2171" x1="9.46743" y1="5.03528" x2="9.46743" y2="14.7094" gradientUnits="userSpaceOnUse">
<stop stop-color="#DDB34A"/>
<stop offset="1" stop-color="#6A4D03"/>
</linearGradient>
<linearGradient id="paint2_linear_15_2171" x1="14.4961" y1="3.71338" x2="14.4961" y2="5.97413" gradientUnits="userSpaceOnUse">
<stop stop-color="#DDB34A"/>
<stop offset="1" stop-color="#6A4D03"/>
</linearGradient>
</defs>
</svg>