<svg width="11" height="10" viewBox="0 0 11 10" fill="none" xmlns="http://www.w3.org/2000/svg">
<path fill-rule="evenodd" clip-rule="evenodd" d="M3.37504 1.875C3.37504 1.37772 3.57258 0.900805 3.92421 0.549175C4.27585 0.197544 4.75276 0 5.25004 0C5.74732 0 6.22423 0.197544 6.57587 0.549175C6.9275 0.900805 7.12504 1.37772 7.12504 1.875C7.12504 2.37228 6.9275 2.84919 6.57587 3.20083C6.22423 3.55246 5.74732 3.75 5.25004 3.75C4.75276 3.75 4.27585 3.55246 3.92421 3.20083C3.57258 2.84919 3.37504 2.37228 3.37504 1.875ZM7.12504 3.375C7.12504 2.97718 7.28308 2.59564 7.56438 2.31434C7.84568 2.03304 8.22722 1.875 8.62504 1.875C9.02286 1.875 9.4044 2.03304 9.6857 2.31434C9.967 2.59564 10.125 2.97718 10.125 3.375C10.125 3.77282 9.967 4.15436 9.6857 4.43566C9.4044 4.71696 9.02286 4.875 8.62504 4.875C8.22722 4.875 7.84568 4.71696 7.56438 4.43566C7.28308 4.15436 7.12504 3.77282 7.12504 3.375ZM0.37504 3.375C0.37504 2.97718 0.533075 2.59564 0.81438 2.31434C1.09568 2.03304 1.47722 1.875 1.87504 1.875C2.27286 1.875 2.6544 2.03304 2.9357 2.31434C3.217 2.59564 3.37504 2.97718 3.37504 3.375C3.37504 3.77282 3.217 4.15436 2.9357 4.43566C2.6544 4.71696 2.27286 4.875 1.87504 4.875C1.47722 4.875 1.09568 4.71696 0.81438 4.43566C0.533075 4.15436 0.37504 3.77282 0.37504 3.375ZM2.40504 6.0585C2.71002 5.58051 3.13058 5.18713 3.62785 4.91472C4.12512 4.64232 4.68305 4.49968 5.25004 4.5C5.72495 4.49957 6.1946 4.59944 6.62824 4.79308C7.06188 4.98672 7.44973 5.26977 7.7664 5.62368C8.08308 5.9776 8.32144 6.39441 8.46587 6.84682C8.6103 7.29924 8.65756 7.77706 8.60454 8.249C8.59806 8.30763 8.57784 8.36391 8.54552 8.41325C8.5132 8.4626 8.4697 8.50363 8.41854 8.533C7.45432 9.08626 6.36171 9.37661 5.25004 9.375C4.13835 9.37675 3.04571 9.08639 2.08154 8.533C2.03039 8.50363 1.98688 8.4626 1.95456 8.41325C1.92224 8.36391 1.90202 8.30763 1.89554 8.249C1.81157 7.48231 1.99127 6.70939 2.40504 6.0585Z" fill="#F6CD66"/>
<path d="M1.79104 5.627C1.29792 6.38819 1.06817 7.29016 1.13704 8.1945C0.836794 8.14898 0.541494 8.07532 0.25504 7.9745L0.19754 7.9545C0.146238 7.93629 0.101316 7.9036 0.0682146 7.86038C0.0351135 7.81716 0.0152536 7.76528 0.0110404 7.711L0.00604037 7.6505C-0.0141571 7.39948 0.0164183 7.14697 0.0959424 6.90802C0.175466 6.66908 0.302309 6.4486 0.468902 6.25975C0.635495 6.0709 0.838424 5.91754 1.06558 5.80883C1.29274 5.70012 1.53946 5.63828 1.79104 5.627ZM9.36304 8.1945C9.43191 7.29016 9.20216 6.38819 8.70904 5.627C8.96062 5.63828 9.20735 5.70012 9.4345 5.80883C9.66166 5.91754 9.86459 6.0709 10.0312 6.25975C10.1978 6.4486 10.3246 6.66908 10.4041 6.90802C10.4837 7.14697 10.5142 7.39948 10.494 7.6505L10.489 7.711C10.4847 7.76519 10.4648 7.81697 10.4317 7.86009C10.3986 7.90321 10.3538 7.93583 10.3025 7.954L10.245 7.974C9.96154 8.074 9.66704 8.1485 9.36304 8.1945Z" fill="#F6CD66"/>
</svg>